<svg width="22" height="23" viewBox="0 0 22 23" fill="none" xmlns="http://www.w3.org/2000/svg">
<path d="M0.844773 6.35717L0.844484 6.35749C0.764052 6.44644 0.711161 6.53189 0.680216 6.62234C0.649513 6.71208 0.644217 6.79604 0.644217 6.87307V21.3642C0.644217 21.5708 0.707108 21.7575 0.831559 21.8944C0.957308 22.0328 1.1344 22.1075 1.33475 22.1075H15.5617C15.6663 22.1075 15.7654 22.0744 15.8456 22.0335C15.9262 21.9924 15.999 21.9375 16.0512 21.8807L16.0517 21.8801L20.7938 16.6635C20.9243 16.52 20.9944 16.3659 20.9944 16.1476L20.994 1.65647C20.994 1.4499 20.9311 1.26324 20.8068 1.12628C20.6811 0.987885 20.5041 0.913199 20.3039 0.913199H6.07689C5.97672 0.913199 5.88571 0.931801 5.80095 0.973187C5.71739 1.01399 5.64861 1.07269 5.58691 1.14057L0.844773 6.35717ZM18.6695 2.39936L15.2784 6.13021H11.9263L15.3175 2.39972L18.6695 2.39936ZM7.2942 7.61632H9.6019V9.60777H7.2942V7.61632ZM10.0092 6.12982L8.23798 6.13014L11.6291 2.39971L13.4003 2.39939L10.0092 6.12982ZM6.35986 2.39931H9.71191L6.32071 6.1298H2.96867L6.35986 2.39931ZM2.02494 7.61632H5.9135V10.3511C5.9135 10.5577 5.97639 10.7443 6.10085 10.8813C6.2266 11.0197 6.40368 11.0944 6.60404 11.0944H10.2924C10.4925 11.0944 10.6696 11.0198 10.7954 10.8815C10.92 10.7446 10.983 10.5579 10.983 10.3511V7.61632H14.8715V20.6212H2.02532L2.02494 7.61632ZM19.6134 15.8526L16.2519 19.5504V7.16827L19.6134 3.47049V15.8526Z" fill="white" stroke="white" stroke-width="0.326923"/>
</svg>
