<svg width="17" height="17" viewBox="0 0 17 17" fill="none" xmlns="http://www.w3.org/2000/svg">
<path d="M6.55859 16.2036C6.31792 16.1689 6.10155 16.0356 5.95231 15.8366L0.835994 9.21944C0.642746 9.02495 0.537101 8.75429 0.53847 8.4758L0.538471 8.47564C0.540066 8.19167 0.652677 7.91651 0.856244 7.72342C1.06072 7.52918 1.33695 7.43787 1.61355 7.48086L1.61374 7.48089C1.88493 7.52328 2.11888 7.68898 2.2636 7.92525L6.6374 13.5721L14.9624 1.65543C15.1013 1.42364 15.3257 1.25778 15.5883 1.20787L6.55859 16.2036ZM6.55859 16.2036L6.5673 16.2125H6.66457H6.6823V16.2127L6.69037 16.2124C6.98222 16.2022 7.24654 16.048 7.41427 15.8052C7.41442 15.805 7.41457 15.8048 7.41473 15.8046L16.461 2.86766C16.6301 2.65892 16.7107 2.38682 16.6888 2.11574C16.6667 1.84115 16.5408 1.58382 16.3338 1.40867M6.55859 16.2036L16.3338 1.40867M16.3338 1.40867C16.3338 1.40868 16.3338 1.40868 16.3338 1.40868L16.1849 1.58468L16.3338 1.40867Z" fill="white" stroke="white" stroke-width="0.461538"/>
</svg>
