<svg width="26" height="24" viewBox="0 0 26 24" fill="none" xmlns="http://www.w3.org/2000/svg">
<mask id="path-1-outside-1_296_2422" maskUnits="userSpaceOnUse" x="0.192322" y="-0.694824" width="26" height="24" fill="black">
<rect fill="white" x="0.192322" y="-0.694824" width="26" height="24"/>
<path d="M16.3801 12.4816C17.333 11.6206 18.6057 11.1426 19.9282 11.1489C20.8754 11.1298 21.808 11.3697 22.6124 11.84C23.4168 12.3104 24.0578 12.9904 24.4574 13.7971C24.5649 14.0265 24.8497 14.1309 25.0942 14.0306C25.3387 13.9302 25.4506 13.6629 25.3441 13.4332C24.6678 12.0203 23.3712 10.9531 21.7914 10.5084C22.5802 9.88647 23.0319 8.96595 23.0227 7.99877C23.0227 6.2618 21.6348 4.84861 19.9291 4.84861C19.2808 4.86428 18.6538 5.06923 18.1353 5.43531C17.6171 5.80136 17.2331 6.31003 17.0372 6.89055C16.4726 6.47872 15.8342 6.1653 15.1519 5.96512C15.941 5.34322 16.3928 4.42269 16.3837 3.45534C16.3837 1.71837 14.9959 0.305176 13.29 0.305176C11.5843 0.305176 10.1965 1.71837 10.1965 3.45534C10.1873 4.42269 10.6392 5.34322 11.4281 5.96512C10.7452 6.16567 10.1061 6.47924 9.54079 6.89128C9.34504 6.31057 8.96105 5.80172 8.4426 5.43549C7.92416 5.06943 7.297 4.86429 6.64861 4.84861C4.94294 4.84861 3.55508 6.2618 3.55508 7.99877C3.54589 8.96595 3.99758 9.88647 4.78637 10.5084C3.20651 10.9531 1.90994 12.0203 1.23362 13.4332C1.18168 13.5436 1.17887 13.6689 1.22556 13.7814C1.27225 13.8939 1.36468 13.9844 1.48243 14.0327C1.60037 14.0811 1.73387 14.0834 1.8535 14.0392C1.97312 13.995 2.06912 13.908 2.12031 13.7971C2.51987 12.9903 3.16094 12.3103 3.96532 11.84C4.7697 11.3697 5.70233 11.1297 6.64956 11.1489C7.9733 11.1421 9.24736 11.621 10.2002 12.4837C10.2126 13.4243 10.6606 14.3132 11.4274 14.9185C10.7447 15.1191 10.1057 15.4328 9.54059 15.8447C9.34465 15.2642 8.96084 14.7553 8.4424 14.3894C7.92395 14.0234 7.29698 13.8182 6.6486 13.8027C4.94293 13.8027 3.55507 15.2159 3.55507 16.9529C3.54588 17.9203 3.99775 18.841 4.78693 19.4629C3.20745 19.9076 1.91108 20.9741 1.23385 22.3861C1.18172 22.4966 1.17854 22.622 1.22504 22.7347C1.27153 22.8474 1.36397 22.9379 1.48191 22.9865C1.59966 23.0349 1.73335 23.0374 1.85316 22.9932C1.97278 22.949 2.06897 22.8618 2.11997 22.7509C2.52009 21.9445 3.16133 21.2646 3.96551 20.7945C4.76989 20.3246 5.70253 20.0844 6.64956 20.1035C7.59679 20.0843 8.52942 20.3244 9.3338 20.7945C10.138 21.2647 10.7792 21.9443 11.1792 22.7507C11.2864 22.9807 11.5718 23.0853 11.8164 22.9845C12.0611 22.884 12.1725 22.616 12.0654 22.3863C11.388 20.9738 10.0911 19.9068 8.51082 19.4624C9.29965 18.8405 9.75114 17.9201 9.74211 16.953C9.74211 16.9327 9.73949 16.9133 9.73911 16.8933C10.6959 16.0368 11.967 15.5591 13.2888 15.5591C14.6105 15.559 15.8818 16.0365 16.8386 16.8927C16.8382 16.913 16.8356 16.9327 16.8356 16.9529C16.8266 17.9201 17.2781 18.8405 18.0669 19.4624C16.4866 19.9068 15.1897 20.9738 14.5122 22.3862C14.4052 22.616 14.5165 22.884 14.7612 22.9845C15.0059 23.0852 15.2913 22.9807 15.3985 22.7507C15.7985 21.9443 16.4397 21.2646 17.2439 20.7945C18.0483 20.3244 18.9809 20.0842 19.9281 20.1034C20.8751 20.0844 21.8078 20.3246 22.6122 20.7945C23.4164 21.2647 24.0576 21.9445 24.4577 22.7509C24.565 22.9807 24.8503 23.0853 25.095 22.9845C25.3397 22.8838 25.4511 22.6158 25.3438 22.3861C24.6666 20.9741 23.3702 19.9077 21.7907 19.4629C22.5799 18.841 23.0318 17.9203 23.0226 16.9529C23.0226 15.2159 21.6347 13.8027 19.9291 13.8027C19.2809 13.8182 18.6539 14.0232 18.1356 14.3893C17.6172 14.7551 17.2334 15.2636 17.0373 15.8441C16.4729 15.4323 15.8346 15.1189 15.1525 14.9185C15.9199 14.3128 16.3682 13.4231 16.3801 12.4817L16.3801 12.4816ZM6.64866 19.1942C5.47641 19.1942 4.5228 18.1886 4.5228 16.9528C4.5228 15.7167 5.47641 14.7112 6.64866 14.7112C7.74589 14.7112 8.65136 15.5923 8.76291 16.7186C8.77097 16.8024 8.77472 16.8771 8.77472 16.9528C8.77453 18.1888 7.82092 19.1942 6.64867 19.1942L6.64866 19.1942ZM19.9292 14.7112C21.1015 14.7112 22.0551 15.7168 22.0551 16.9528C22.0551 18.1888 21.1015 19.1942 19.9292 19.1942C18.757 19.1942 17.8034 18.1886 17.8034 16.9528C17.8034 16.8772 17.8071 16.8028 17.8141 16.7292C17.9264 15.5926 18.8318 14.7111 19.9292 14.7111L19.9292 14.7112ZM19.9292 5.75702C21.1015 5.75702 22.0551 6.7626 22.0551 7.9986C22.0551 9.23461 21.1015 10.2402 19.9292 10.2402C18.757 10.2402 17.8034 9.23461 17.8034 7.9986C17.8034 7.92342 17.8071 7.84929 17.8141 7.77605C17.9262 6.63844 18.8318 5.75718 19.9292 5.75718L19.9292 5.75702ZM13.2899 1.21345C14.4622 1.21345 15.4162 2.21903 15.4162 3.45504C15.4162 4.69104 14.4622 5.69662 13.2899 5.69662C12.1177 5.69662 11.164 4.69104 11.164 3.45504C11.1639 2.21899 12.1175 1.21345 13.2899 1.21345ZM13.2888 6.60533C14.6117 6.59899 15.8853 7.07758 16.8385 7.9391C16.8381 7.95918 16.8355 7.97855 16.8355 7.99862C16.8265 8.96579 17.278 9.88632 18.0668 10.5082C17.4 10.7035 16.7747 11.0068 16.2194 11.4046C16.039 10.8 15.6574 10.2656 15.1302 9.87946C14.603 9.49351 13.9582 9.27604 13.2897 9.25896C12.6215 9.27604 11.9763 9.49367 11.449 9.87996C10.922 10.2661 10.5402 10.8008 10.36 11.4055C9.80426 11.007 9.17859 10.7033 8.51091 10.5079C9.29955 9.88596 9.75103 8.96561 9.74201 7.99862C9.74201 7.97872 9.73938 7.95935 9.73901 7.93963C10.6924 7.07847 11.9658 6.59987 13.2887 6.60532L13.2888 6.60533ZM6.6485 5.7572C7.74592 5.7572 8.65138 6.63846 8.76274 7.7648C8.77062 7.84914 8.77455 7.92344 8.77455 7.99863C8.77455 9.23468 7.82094 10.2402 6.64869 10.2402C5.47644 10.2402 4.52283 9.23463 4.52283 7.99863C4.52265 6.76276 5.47625 5.75718 6.6485 5.75718L6.6485 5.7572ZM13.2989 14.6501C12.112 14.6443 11.1636 13.6415 11.1636 12.4092C11.1636 11.1731 12.1173 10.1676 13.2895 10.1676C14.4618 10.1676 15.4157 11.1732 15.4157 12.4092C15.4157 13.6417 14.4668 14.6446 13.2989 14.6501Z"/>
</mask>
<path d="M16.3801 12.4816C17.333 11.6206 18.6057 11.1426 19.9282 11.1489C20.8754 11.1298 21.808 11.3697 22.6124 11.84C23.4168 12.3104 24.0578 12.9904 24.4574 13.7971C24.5649 14.0265 24.8497 14.1309 25.0942 14.0306C25.3387 13.9302 25.4506 13.6629 25.3441 13.4332C24.6678 12.0203 23.3712 10.9531 21.7914 10.5084C22.5802 9.88647 23.0319 8.96595 23.0227 7.99877C23.0227 6.2618 21.6348 4.84861 19.9291 4.84861C19.2808 4.86428 18.6538 5.06923 18.1353 5.43531C17.6171 5.80136 17.2331 6.31003 17.0372 6.89055C16.4726 6.47872 15.8342 6.1653 15.1519 5.96512C15.941 5.34322 16.3928 4.42269 16.3837 3.45534C16.3837 1.71837 14.9959 0.305176 13.29 0.305176C11.5843 0.305176 10.1965 1.71837 10.1965 3.45534C10.1873 4.42269 10.6392 5.34322 11.4281 5.96512C10.7452 6.16567 10.1061 6.47924 9.54079 6.89128C9.34504 6.31057 8.96105 5.80172 8.4426 5.43549C7.92416 5.06943 7.297 4.86429 6.64861 4.84861C4.94294 4.84861 3.55508 6.2618 3.55508 7.99877C3.54589 8.96595 3.99758 9.88647 4.78637 10.5084C3.20651 10.9531 1.90994 12.0203 1.23362 13.4332C1.18168 13.5436 1.17887 13.6689 1.22556 13.7814C1.27225 13.8939 1.36468 13.9844 1.48243 14.0327C1.60037 14.0811 1.73387 14.0834 1.8535 14.0392C1.97312 13.995 2.06912 13.908 2.12031 13.7971C2.51987 12.9903 3.16094 12.3103 3.96532 11.84C4.7697 11.3697 5.70233 11.1297 6.64956 11.1489C7.9733 11.1421 9.24736 11.621 10.2002 12.4837C10.2126 13.4243 10.6606 14.3132 11.4274 14.9185C10.7447 15.1191 10.1057 15.4328 9.54059 15.8447C9.34465 15.2642 8.96084 14.7553 8.4424 14.3894C7.92395 14.0234 7.29698 13.8182 6.6486 13.8027C4.94293 13.8027 3.55507 15.2159 3.55507 16.9529C3.54588 17.9203 3.99775 18.841 4.78693 19.4629C3.20745 19.9076 1.91108 20.9741 1.23385 22.3861C1.18172 22.4966 1.17854 22.622 1.22504 22.7347C1.27153 22.8474 1.36397 22.9379 1.48191 22.9865C1.59966 23.0349 1.73335 23.0374 1.85316 22.9932C1.97278 22.949 2.06897 22.8618 2.11997 22.7509C2.52009 21.9445 3.16133 21.2646 3.96551 20.7945C4.76989 20.3246 5.70253 20.0844 6.64956 20.1035C7.59679 20.0843 8.52942 20.3244 9.3338 20.7945C10.138 21.2647 10.7792 21.9443 11.1792 22.7507C11.2864 22.9807 11.5718 23.0853 11.8164 22.9845C12.0611 22.884 12.1725 22.616 12.0654 22.3863C11.388 20.9738 10.0911 19.9068 8.51082 19.4624C9.29965 18.8405 9.75114 17.9201 9.74211 16.953C9.74211 16.9327 9.73949 16.9133 9.73911 16.8933C10.6959 16.0368 11.967 15.5591 13.2888 15.5591C14.6105 15.559 15.8818 16.0365 16.8386 16.8927C16.8382 16.913 16.8356 16.9327 16.8356 16.9529C16.8266 17.9201 17.2781 18.8405 18.0669 19.4624C16.4866 19.9068 15.1897 20.9738 14.5122 22.3862C14.4052 22.616 14.5165 22.884 14.7612 22.9845C15.0059 23.0852 15.2913 22.9807 15.3985 22.7507C15.7985 21.9443 16.4397 21.2646 17.2439 20.7945C18.0483 20.3244 18.9809 20.0842 19.9281 20.1034C20.8751 20.0844 21.8078 20.3246 22.6122 20.7945C23.4164 21.2647 24.0576 21.9445 24.4577 22.7509C24.565 22.9807 24.8503 23.0853 25.095 22.9845C25.3397 22.8838 25.4511 22.6158 25.3438 22.3861C24.6666 20.9741 23.3702 19.9077 21.7907 19.4629C22.5799 18.841 23.0318 17.9203 23.0226 16.9529C23.0226 15.2159 21.6347 13.8027 19.9291 13.8027C19.2809 13.8182 18.6539 14.0232 18.1356 14.3893C17.6172 14.7551 17.2334 15.2636 17.0373 15.8441C16.4729 15.4323 15.8346 15.1189 15.1525 14.9185C15.9199 14.3128 16.3682 13.4231 16.3801 12.4817L16.3801 12.4816ZM6.64866 19.1942C5.47641 19.1942 4.5228 18.1886 4.5228 16.9528C4.5228 15.7167 5.47641 14.7112 6.64866 14.7112C7.74589 14.7112 8.65136 15.5923 8.76291 16.7186C8.77097 16.8024 8.77472 16.8771 8.77472 16.9528C8.77453 18.1888 7.82092 19.1942 6.64867 19.1942L6.64866 19.1942ZM19.9292 14.7112C21.1015 14.7112 22.0551 15.7168 22.0551 16.9528C22.0551 18.1888 21.1015 19.1942 19.9292 19.1942C18.757 19.1942 17.8034 18.1886 17.8034 16.9528C17.8034 16.8772 17.8071 16.8028 17.8141 16.7292C17.9264 15.5926 18.8318 14.7111 19.9292 14.7111L19.9292 14.7112ZM19.9292 5.75702C21.1015 5.75702 22.0551 6.7626 22.0551 7.9986C22.0551 9.23461 21.1015 10.2402 19.9292 10.2402C18.757 10.2402 17.8034 9.23461 17.8034 7.9986C17.8034 7.92342 17.8071 7.84929 17.8141 7.77605C17.9262 6.63844 18.8318 5.75718 19.9292 5.75718L19.9292 5.75702ZM13.2899 1.21345C14.4622 1.21345 15.4162 2.21903 15.4162 3.45504C15.4162 4.69104 14.4622 5.69662 13.2899 5.69662C12.1177 5.69662 11.164 4.69104 11.164 3.45504C11.1639 2.21899 12.1175 1.21345 13.2899 1.21345ZM13.2888 6.60533C14.6117 6.59899 15.8853 7.07758 16.8385 7.9391C16.8381 7.95918 16.8355 7.97855 16.8355 7.99862C16.8265 8.96579 17.278 9.88632 18.0668 10.5082C17.4 10.7035 16.7747 11.0068 16.2194 11.4046C16.039 10.8 15.6574 10.2656 15.1302 9.87946C14.603 9.49351 13.9582 9.27604 13.2897 9.25896C12.6215 9.27604 11.9763 9.49367 11.449 9.87996C10.922 10.2661 10.5402 10.8008 10.36 11.4055C9.80426 11.007 9.17859 10.7033 8.51091 10.5079C9.29955 9.88596 9.75103 8.96561 9.74201 7.99862C9.74201 7.97872 9.73938 7.95935 9.73901 7.93963C10.6924 7.07847 11.9658 6.59987 13.2887 6.60532L13.2888 6.60533ZM6.6485 5.7572C7.74592 5.7572 8.65138 6.63846 8.76274 7.7648C8.77062 7.84914 8.77455 7.92344 8.77455 7.99863C8.77455 9.23468 7.82094 10.2402 6.64869 10.2402C5.47644 10.2402 4.52283 9.23463 4.52283 7.99863C4.52265 6.76276 5.47625 5.75718 6.6485 5.75718L6.6485 5.7572ZM13.2989 14.6501C12.112 14.6443 11.1636 13.6415 11.1636 12.4092C11.1636 11.1731 12.1173 10.1676 13.2895 10.1676C14.4618 10.1676 15.4157 11.1732 15.4157 12.4092C15.4157 13.6417 14.4668 14.6446 13.2989 14.6501Z" fill="white"/>
<path d="M16.3801 12.4816C17.333 11.6206 18.6057 11.1426 19.9282 11.1489C20.8754 11.1298 21.808 11.3697 22.6124 11.84C23.4168 12.3104 24.0578 12.9904 24.4574 13.7971C24.5649 14.0265 24.8497 14.1309 25.0942 14.0306C25.3387 13.9302 25.4506 13.6629 25.3441 13.4332C24.6678 12.0203 23.3712 10.9531 21.7914 10.5084C22.5802 9.88647 23.0319 8.96595 23.0227 7.99877C23.0227 6.2618 21.6348 4.84861 19.9291 4.84861C19.2808 4.86428 18.6538 5.06923 18.1353 5.43531C17.6171 5.80136 17.2331 6.31003 17.0372 6.89055C16.4726 6.47872 15.8342 6.1653 15.1519 5.96512C15.941 5.34322 16.3928 4.42269 16.3837 3.45534C16.3837 1.71837 14.9959 0.305176 13.29 0.305176C11.5843 0.305176 10.1965 1.71837 10.1965 3.45534C10.1873 4.42269 10.6392 5.34322 11.4281 5.96512C10.7452 6.16567 10.1061 6.47924 9.54079 6.89128C9.34504 6.31057 8.96105 5.80172 8.4426 5.43549C7.92416 5.06943 7.297 4.86429 6.64861 4.84861C4.94294 4.84861 3.55508 6.2618 3.55508 7.99877C3.54589 8.96595 3.99758 9.88647 4.78637 10.5084C3.20651 10.9531 1.90994 12.0203 1.23362 13.4332C1.18168 13.5436 1.17887 13.6689 1.22556 13.7814C1.27225 13.8939 1.36468 13.9844 1.48243 14.0327C1.60037 14.0811 1.73387 14.0834 1.8535 14.0392C1.97312 13.995 2.06912 13.908 2.12031 13.7971C2.51987 12.9903 3.16094 12.3103 3.96532 11.84C4.7697 11.3697 5.70233 11.1297 6.64956 11.1489C7.9733 11.1421 9.24736 11.621 10.2002 12.4837C10.2126 13.4243 10.6606 14.3132 11.4274 14.9185C10.7447 15.1191 10.1057 15.4328 9.54059 15.8447C9.34465 15.2642 8.96084 14.7553 8.4424 14.3894C7.92395 14.0234 7.29698 13.8182 6.6486 13.8027C4.94293 13.8027 3.55507 15.2159 3.55507 16.9529C3.54588 17.9203 3.99775 18.841 4.78693 19.4629C3.20745 19.9076 1.91108 20.9741 1.23385 22.3861C1.18172 22.4966 1.17854 22.622 1.22504 22.7347C1.27153 22.8474 1.36397 22.9379 1.48191 22.9865C1.59966 23.0349 1.73335 23.0374 1.85316 22.9932C1.97278 22.949 2.06897 22.8618 2.11997 22.7509C2.52009 21.9445 3.16133 21.2646 3.96551 20.7945C4.76989 20.3246 5.70253 20.0844 6.64956 20.1035C7.59679 20.0843 8.52942 20.3244 9.3338 20.7945C10.138 21.2647 10.7792 21.9443 11.1792 22.7507C11.2864 22.9807 11.5718 23.0853 11.8164 22.9845C12.0611 22.884 12.1725 22.616 12.0654 22.3863C11.388 20.9738 10.0911 19.9068 8.51082 19.4624C9.29965 18.8405 9.75114 17.9201 9.74211 16.953C9.74211 16.9327 9.73949 16.9133 9.73911 16.8933C10.6959 16.0368 11.967 15.5591 13.2888 15.5591C14.6105 15.559 15.8818 16.0365 16.8386 16.8927C16.8382 16.913 16.8356 16.9327 16.8356 16.9529C16.8266 17.9201 17.2781 18.8405 18.0669 19.4624C16.4866 19.9068 15.1897 20.9738 14.5122 22.3862C14.4052 22.616 14.5165 22.884 14.7612 22.9845C15.0059 23.0852 15.2913 22.9807 15.3985 22.7507C15.7985 21.9443 16.4397 21.2646 17.2439 20.7945C18.0483 20.3244 18.9809 20.0842 19.9281 20.1034C20.8751 20.0844 21.8078 20.3246 22.6122 20.7945C23.4164 21.2647 24.0576 21.9445 24.4577 22.7509C24.565 22.9807 24.8503 23.0853 25.095 22.9845C25.3397 22.8838 25.4511 22.6158 25.3438 22.3861C24.6666 20.9741 23.3702 19.9077 21.7907 19.4629C22.5799 18.841 23.0318 17.9203 23.0226 16.9529C23.0226 15.2159 21.6347 13.8027 19.9291 13.8027C19.2809 13.8182 18.6539 14.0232 18.1356 14.3893C17.6172 14.7551 17.2334 15.2636 17.0373 15.8441C16.4729 15.4323 15.8346 15.1189 15.1525 14.9185C15.9199 14.3128 16.3682 13.4231 16.3801 12.4817L16.3801 12.4816ZM6.64866 19.1942C5.47641 19.1942 4.5228 18.1886 4.5228 16.9528C4.5228 15.7167 5.47641 14.7112 6.64866 14.7112C7.74589 14.7112 8.65136 15.5923 8.76291 16.7186C8.77097 16.8024 8.77472 16.8771 8.77472 16.9528C8.77453 18.1888 7.82092 19.1942 6.64867 19.1942L6.64866 19.1942ZM19.9292 14.7112C21.1015 14.7112 22.0551 15.7168 22.0551 16.9528C22.0551 18.1888 21.1015 19.1942 19.9292 19.1942C18.757 19.1942 17.8034 18.1886 17.8034 16.9528C17.8034 16.8772 17.8071 16.8028 17.8141 16.7292C17.9264 15.5926 18.8318 14.7111 19.9292 14.7111L19.9292 14.7112ZM19.9292 5.75702C21.1015 5.75702 22.0551 6.7626 22.0551 7.9986C22.0551 9.23461 21.1015 10.2402 19.9292 10.2402C18.757 10.2402 17.8034 9.23461 17.8034 7.9986C17.8034 7.92342 17.8071 7.84929 17.8141 7.77605C17.9262 6.63844 18.8318 5.75718 19.9292 5.75718L19.9292 5.75702ZM13.2899 1.21345C14.4622 1.21345 15.4162 2.21903 15.4162 3.45504C15.4162 4.69104 14.4622 5.69662 13.2899 5.69662C12.1177 5.69662 11.164 4.69104 11.164 3.45504C11.1639 2.21899 12.1175 1.21345 13.2899 1.21345ZM13.2888 6.60533C14.6117 6.59899 15.8853 7.07758 16.8385 7.9391C16.8381 7.95918 16.8355 7.97855 16.8355 7.99862C16.8265 8.96579 17.278 9.88632 18.0668 10.5082C17.4 10.7035 16.7747 11.0068 16.2194 11.4046C16.039 10.8 15.6574 10.2656 15.1302 9.87946C14.603 9.49351 13.9582 9.27604 13.2897 9.25896C12.6215 9.27604 11.9763 9.49367 11.449 9.87996C10.922 10.2661 10.5402 10.8008 10.36 11.4055C9.80426 11.007 9.17859 10.7033 8.51091 10.5079C9.29955 9.88596 9.75103 8.96561 9.74201 7.99862C9.74201 7.97872 9.73938 7.95935 9.73901 7.93963C10.6924 7.07847 11.9658 6.59987 13.2887 6.60532L13.2888 6.60533ZM6.6485 5.7572C7.74592 5.7572 8.65138 6.63846 8.76274 7.7648C8.77062 7.84914 8.77455 7.92344 8.77455 7.99863C8.77455 9.23468 7.82094 10.2402 6.64869 10.2402C5.47644 10.2402 4.52283 9.23463 4.52283 7.99863C4.52265 6.76276 5.47625 5.75718 6.6485 5.75718L6.6485 5.7572ZM13.2989 14.6501C12.112 14.6443 11.1636 13.6415 11.1636 12.4092C11.1636 11.1731 12.1173 10.1676 13.2895 10.1676C14.4618 10.1676 15.4157 11.1732 15.4157 12.4092C15.4157 13.6417 14.4668 14.6446 13.2989 14.6501Z" stroke="white" stroke-width="0.558163" mask="url(#path-1-outside-1_296_2422)"/>
</svg>
