<svg width="13" height="25" viewBox="0 0 13 25" fill="none" xmlns="http://www.w3.org/2000/svg">
<path d="M12.1896 24.5422C12.1381 24.5989 12.078 24.6468 12.0103 24.683C11.7783 24.808 11.4999 24.7763 11.2919 24.6016L6.47339 20.5471L2.06881 24.5114C1.86556 24.6945 1.58297 24.7306 1.34334 24.6042C1.10347 24.4777 0.949402 24.2118 0.947494 23.9209L0.797956 1.1133C0.795231 0.697722 1.09893 0.363635 1.47681 0.366515L11.5479 0.44642C11.9257 0.449418 12.2338 0.788359 12.2367 1.20405L12.3859 24.012C12.3875 24.2149 12.3146 24.4046 12.1893 24.5424L12.1896 24.5422ZM2.30493 22.3417L6.01388 19.0036C6.25749 18.7843 6.60836 18.7799 6.86206 18.9934L11.0087 22.4824L10.874 1.94555L2.17034 1.87684L2.30493 22.3417ZM8.0721 6.87126C7.66978 7.31384 7.13256 7.55528 6.55928 7.55074C5.98587 7.54633 5.4453 7.29619 5.03713 6.84719C4.62909 6.39805 4.40184 5.80353 4.39769 5.17289C4.39356 4.54197 4.61305 3.951 5.01562 3.50816C5.41794 3.06558 5.95516 2.82414 6.52844 2.82868C7.10172 2.83321 7.64204 3.08309 8.05046 3.53237C8.45888 3.98165 8.68588 4.57616 8.69002 5.20681C8.69416 5.83745 8.47454 6.42855 8.0721 6.87126ZM5.98995 4.57999C5.84407 4.74046 5.76416 4.95503 5.76579 5.18399C5.76754 5.41282 5.84953 5.6284 5.99767 5.79136C6.14567 5.95417 6.34176 6.04477 6.5499 6.04654C6.96582 6.04998 7.32565 5.65333 7.32277 5.19634C7.32103 4.9675 7.23879 4.75165 7.09067 4.58872C6.94267 4.42591 6.7467 4.33518 6.53878 4.33337C6.33052 4.33199 6.13583 4.4195 5.98997 4.57996L5.98995 4.57999Z" fill="white"/>
</svg>
