<svg width="12" height="12" viewBox="0 0 12 12" fill="none" xmlns="http://www.w3.org/2000/svg">
<path opacity="0.1" fill-rule="evenodd" clip-rule="evenodd" d="M5.89942 11.3054C8.90442 11.3054 11.3405 8.86939 11.3405 5.86438C11.3405 2.85938 8.90442 0.42334 5.89942 0.42334C2.89441 0.42334 0.458374 2.85938 0.458374 5.86438C0.458374 8.86939 2.89441 11.3054 5.89942 11.3054Z" stroke="#212121" stroke-width="0.466375"/>
<g clip-path="url(#clip0_297_2560)">
<path d="M7.60947 3.11816H6.83218C6.48859 3.11816 6.15908 3.25465 5.91613 3.4976C5.67318 3.74055 5.53669 4.07007 5.53669 4.41365V5.19094H4.7594V6.22733H5.53669V8.30011H6.57308V6.22733H7.35037L7.60947 5.19094H6.57308V4.41365C6.57308 4.34493 6.60038 4.27903 6.64897 4.23044C6.69756 4.18185 6.76346 4.15455 6.83218 4.15455H7.60947V3.11816Z" fill="#212121"/>
</g>
<defs>
<clipPath id="clip0_297_2560">
<rect width="6.21833" height="6.21833" fill="white" transform="translate(2.94568 2.6001)"/>
</clipPath>
</defs>
</svg>
