<svg width="13" height="12" viewBox="0 0 13 12" fill="none" xmlns="http://www.w3.org/2000/svg">
<path opacity="0.1" fill-rule="evenodd" clip-rule="evenodd" d="M6.35352 11.3054C9.35852 11.3054 11.7946 8.86939 11.7946 5.86438C11.7946 2.85938 9.35852 0.42334 6.35352 0.42334C3.34851 0.42334 0.912476 2.85938 0.912476 5.86438C0.912476 8.86939 3.34851 11.3054 6.35352 11.3054Z" stroke="#212121" stroke-width="0.466375"/>
<g clip-path="url(#clip0_297_2557)">
<path d="M7.54543 4.67285C7.95773 4.67285 8.35314 4.83664 8.64469 5.12818C8.93623 5.41972 9.10001 5.81513 9.10001 6.22743V8.04112H8.06362V6.22743C8.06362 6.09 8.00903 5.9582 7.91185 5.86102C7.81467 5.76384 7.68286 5.70924 7.54543 5.70924C7.40799 5.70924 7.27619 5.76384 7.17901 5.86102C7.08183 5.9582 7.02723 6.09 7.02723 6.22743V8.04112H5.99084V6.22743C5.99084 5.81513 6.15463 5.41972 6.44617 5.12818C6.73771 4.83664 7.13313 4.67285 7.54543 4.67285Z" fill="#212121"/>
<path d="M4.95442 4.93213H3.91803V8.0413H4.95442V4.93213Z" fill="#212121"/>
<path d="M4.43622 4.15455C4.72242 4.15455 4.95442 3.92255 4.95442 3.63636C4.95442 3.35017 4.72242 3.11816 4.43622 3.11816C4.15003 3.11816 3.91803 3.35017 3.91803 3.63636C3.91803 3.92255 4.15003 4.15455 4.43622 4.15455Z" fill="#212121"/>
</g>
<defs>
<clipPath id="clip0_297_2557">
<rect width="6.21833" height="6.21833" fill="white" transform="translate(3.39984 2.6001)"/>
</clipPath>
</defs>
</svg>
