<svg width="37" height="44" viewBox="0 0 37 44" fill="none" xmlns="http://www.w3.org/2000/svg">
<path d="M30.9222 1.92168L30.1497 1.69761C29.9466 1.62812 24.9693 0 18.2807 0C14.3433 0 10.589 0.5695 7.12758 1.69327L6.40214 1.92717C6.35367 2.05124 1.48176 15.0562 0.431881 26.7222C0.407474 26.9937 0.498322 27.2632 0.682729 27.4649C0.8668 27.6663 1.12748 27.7809 1.40003 27.7809H6.22279C5.4326 32.6237 4.68043 37.8631 4.68043 40.2721V41.0077L5.42586 41.2569C5.71942 41.3396 12.7334 43.3318 20.3183 43.3318H20.3204C24.8394 43.3318 28.6419 42.583 31.5949 41.2019L32.2166 40.868L32.1946 40.1992C32.1644 39.8016 31.7329 33.9049 30.7041 27.78H35.3655C35.637 27.78 35.896 27.6668 36.0804 27.4671C36.2642 27.2678 36.3564 27.0007 36.3347 26.7305C35.2831 13.5927 31.1146 2.34592 30.9227 1.92156L30.9222 1.92168ZM26.4367 15.8804C25.1302 14.7865 22.8736 12.8621 20.4979 10.6891C21.7444 9.861 23.701 7.79761 25.7492 2.64933C27.0842 2.90018 28.1174 3.16358 28.7391 3.33849C28.5781 7.41312 27.1475 13.2142 26.4367 15.8801V15.8804ZM18.2823 1.94597C20.3163 1.94597 22.1793 2.10937 23.7807 2.33005C21.4285 8.0562 19.3965 9.13219 18.9952 9.29352C16.4405 6.88396 13.9676 4.34189 12.6086 2.38732C14.4418 2.09681 16.3361 1.94597 18.2822 1.94597L18.2823 1.94597ZM10.5453 2.77921C13.2433 7.15592 21.7982 14.5337 25.0785 17.282C19.7601 18.9227 12.011 17.4176 9.8363 16.9369C9.22883 13.5813 8.6349 5.78993 8.45631 3.31928C9.14038 3.11521 9.83838 2.93758 10.5455 2.77927L10.5453 2.77921ZM2.47268 25.8378C3.2493 18.7126 5.35849 11.4495 6.77545 7.14429C7.06563 10.722 7.51072 15.4976 7.97615 17.7559C7.81614 18.621 7.19139 21.9921 6.52795 25.9373L2.47268 25.8378ZM20.3192 41.3889H20.3171C14.3869 41.3889 8.69197 40.0655 6.71857 39.5763C6.95247 34.7603 9.13863 22.4596 9.78202 18.919C11.4332 19.2739 14.8617 19.9041 18.5452 19.9689C17.6414 22.1838 16.0322 26.652 16.0322 30.3982C16.0322 30.9348 16.4678 31.37 17.0041 31.37C17.5407 31.37 17.976 30.9344 17.976 30.3982C17.976 27.5232 19.0776 24.0408 19.9285 21.7784C20.4431 22.8255 21.1001 24.4455 21.7018 26.7825C21.8147 27.2209 22.2096 27.512 22.6425 27.512C22.7222 27.512 22.8039 27.5019 22.8856 27.4815C23.4052 27.348 23.7181 26.8181 23.5846 26.2977C22.732 22.9878 21.7568 20.9726 21.1337 19.9119C22.9856 19.7895 24.8124 19.4783 26.4284 18.8729C28.7558 25.0743 29.887 36.7749 30.1416 39.7142C27.5362 40.7935 24.2365 41.3898 20.318 41.3898L20.3192 41.3889ZM30.3562 25.8378C29.7735 22.7588 29.0339 19.7634 28.1125 17.5258C28.479 16.2335 29.8204 11.5542 30.5085 7.13899C31.6827 10.8713 33.5258 17.7072 34.3037 25.8385L30.3562 25.8382V25.8378Z" fill="#A65E34"/>
</svg>
