<svg width="33" height="47" viewBox="0 0 33 47" fill="none" xmlns="http://www.w3.org/2000/svg">
<path d="M28.3992 27.4262C30.7796 24.8129 32.254 21.4813 32.5982 17.9389C32.9429 14.3962 32.1382 10.8362 30.3067 7.80098C28.4756 4.76544 25.7181 2.42093 22.4542 1.12348C19.1899 -0.173978 15.5976 -0.352894 12.2246 0.614002C8.85123 1.58094 5.88106 3.64054 3.76608 6.47953C1.65147 9.31852 0.507733 12.7812 0.509149 16.3415C0.508412 20.4581 2.0491 24.4212 4.81914 27.4272L0.558593 41.4971C0.428848 41.9418 0.550484 42.4229 0.875218 42.7489C1.19958 43.0749 1.6747 43.1932 2.11115 43.0566L7.06505 41.5641L10.3676 45.589C10.5962 45.89 10.9511 46.0641 11.3252 46.0588H11.5563C12.0012 45.96 12.3602 45.6276 12.4977 45.1866L16.2791 32.6423H17.1379L20.9193 45.1866C21.0564 45.6276 21.4154 45.96 21.8603 46.0588H22.0918C22.4659 46.064 22.8209 45.89 23.0494 45.589L26.352 41.5641L31.3059 43.0566C31.7423 43.1932 32.217 43.0749 32.5418 42.7489C32.8666 42.4228 32.9878 41.9418 32.858 41.4971L28.3992 27.4262ZM10.7133 42.234L8.35216 39.3662C8.03333 38.9832 7.52246 38.8256 7.04773 38.9638L3.56339 40.0201L6.78343 29.3043C8.78971 30.8709 11.1321 31.934 13.6197 32.4068L10.7133 42.234ZM2.98544 16.3405C2.98544 12.6712 4.42075 9.15201 6.97545 6.5571C9.53053 3.96257 12.9957 2.50488 16.6087 2.50488C20.2216 2.50488 23.6868 3.96257 26.2419 6.5571C28.7966 9.15201 30.2319 12.6712 30.2319 16.3405C30.2319 20.0098 28.7966 23.529 26.2419 26.1239C23.6868 28.7184 20.2216 30.1761 16.6087 30.1761C12.9968 30.1716 9.53421 28.7125 6.98017 26.119C4.4266 23.5252 2.98978 20.0086 2.98534 16.3404L2.98544 16.3405ZM26.1036 38.9633C25.6285 38.8252 25.118 38.9828 24.7992 39.3657L22.4874 42.2336L19.5317 32.4061C22.0189 31.9333 24.3614 30.8702 26.3679 29.3036L29.588 40.0194L26.1036 38.9633Z" fill="#A65E34"/>
<path d="M22.6695 12.9864L19.7797 12.5672L18.4919 9.91765H18.4916C18.2601 9.43849 17.8598 9.06528 17.3703 8.87175C16.8808 8.67784 16.3375 8.67784 15.848 8.87175C15.3585 9.06528 14.9582 9.4385 14.7267 9.91765L13.4389 12.5672L10.5487 12.9864C10.0334 13.0662 9.56566 13.3383 9.23729 13.7493C8.9085 14.1604 8.74226 14.6811 8.77102 15.2096C8.80013 15.7382 9.02166 16.2372 9.39283 16.6089L11.4902 18.6884L10.9948 21.6063C10.9023 22.1312 11.0088 22.6721 11.2922 23.1206C11.576 23.569 12.0162 23.8921 12.5245 24.025C13.0328 24.1579 13.5717 24.0905 14.0331 23.8371L16.6092 22.3947L19.1854 23.7701V23.7697C19.485 23.9333 19.8193 24.0198 20.1595 24.0212C20.6037 24.0216 21.0364 23.8809 21.398 23.6188C21.7124 23.3845 21.9564 23.0659 22.102 22.6983C22.248 22.3311 22.29 21.9298 22.2236 21.5394L21.7283 18.6214L23.8256 16.542C24.1968 16.1702 24.4183 15.6712 24.4474 15.1426C24.4762 14.6137 24.3099 14.0934 23.9811 13.6824C23.6527 13.2713 23.185 12.9992 22.6697 12.9195L22.6695 12.9864ZM19.5321 17.3468C19.2479 17.6376 19.1189 18.0494 19.1852 18.4537L19.6474 21.2546L17.1871 19.9298V19.9294C16.827 19.7295 16.3913 19.7295 16.0312 19.9294L13.5708 21.2542L14.033 18.4533V18.4537C14.0994 18.0494 13.9704 17.6376 13.6862 17.3468L11.6553 15.3006L14.4131 14.8982C14.8123 14.8338 15.1566 14.5777 15.3376 14.2105L16.6093 11.6616L17.8477 14.2109V14.2105C18.0291 14.5777 18.373 14.8338 18.7725 14.8982L21.5304 15.3006L19.5321 17.3468Z" fill="#A65E34"/>
</svg>
