<svg width="34" height="34" viewBox="0 0 34 34" fill="none" xmlns="http://www.w3.org/2000/svg">
<path d="M22.6535 21.3046C22.4472 21.3046 22.2366 21.2578 22.04 21.1602L16.5368 18.4085C16.0704 18.1747 15.776 17.6986 15.776 17.1771V7.54664C15.776 6.78725 16.3924 6.1709 17.1518 6.1709C17.9112 6.1709 18.5275 6.78725 18.5275 7.54664V16.3269L23.2699 18.6988C23.9496 19.0385 24.2246 19.8654 23.8849 20.5451C23.6442 21.0267 23.1585 21.3045 22.6536 21.3045L22.6535 21.3046ZM17.1517 33.6869C8.04777 33.6869 0.641968 26.2811 0.641968 17.1771C0.641968 8.07319 8.04777 0.667389 17.1517 0.667389C26.2557 0.667389 33.6615 8.07319 33.6615 17.1771C33.6615 26.2811 26.2557 33.6869 17.1517 33.6869ZM17.1517 3.41921C9.56549 3.41921 3.39379 9.59091 3.39379 17.1771C3.39379 24.7634 9.56549 30.9351 17.1517 30.9351C24.738 30.9351 30.9097 24.7634 30.9097 17.1771C30.9097 9.59091 24.738 3.41921 17.1517 3.41921Z" fill="#A65E34"/>
</svg>
