<svg width="41" height="33" viewBox="0 0 41 33" fill="none" xmlns="http://www.w3.org/2000/svg">
<path d="M20.1572 7.22872e-05C24.2588 7.22872e-05 27.5833 3.26034 27.5833 7.2825C27.5833 9.75933 26.3227 11.9474 24.3961 13.2631C24.6828 13.3723 24.9644 13.4931 25.2397 13.6237C25.2501 13.6288 25.2604 13.6339 25.2708 13.6386C25.3211 13.6626 25.371 13.6872 25.421 13.7119C25.4425 13.7224 25.4639 13.7333 25.4854 13.7438C25.512 13.7576 25.5387 13.7711 25.5653 13.7848C25.6012 13.803 25.6363 13.8215 25.6715 13.84C25.6904 13.8502 25.7092 13.86 25.7277 13.8701C26.1285 14.0835 26.5162 14.3201 26.8892 14.5788C26.8985 14.5857 26.9081 14.5926 26.9174 14.5991C26.9484 14.6198 26.9784 14.6412 27.0088 14.6626C26.6968 14.0004 26.5226 13.2624 26.5226 12.4844C26.5226 9.6113 28.8977 7.28254 31.8271 7.28254C34.7569 7.28254 37.1316 9.6113 37.1316 12.4844C37.1316 14.0247 36.4489 15.4086 35.3641 16.3611C38.2857 17.6757 40.3145 20.5699 40.3145 23.9284V27.6615C40.3145 28.086 40.0518 28.4678 39.6503 28.6264C37.051 29.6546 34.4413 30.1707 31.8271 30.1707C31.4534 30.1707 31.0797 30.1601 30.7056 30.1391L31.012 30.1532L30.7681 30.2476C30.501 30.3484 30.2335 30.4457 29.9663 30.5393L29.8653 30.5741C29.7606 30.6104 29.6559 30.6464 29.5511 30.6812C29.5267 30.6895 29.5019 30.6975 29.4775 30.7059C29.3743 30.74 29.271 30.7737 29.1678 30.8071C29.1149 30.8238 29.062 30.8408 29.0087 30.8575C28.924 30.884 28.8396 30.9105 28.7549 30.9363C28.709 30.9504 28.6627 30.9646 28.6165 30.9784C28.5307 31.0041 28.4452 31.0295 28.3593 31.0546C28.3175 31.0669 28.2753 31.0792 28.2332 31.0912C28.1288 31.1213 28.0245 31.1507 27.9201 31.1794C27.9094 31.1823 27.8987 31.1855 27.8879 31.1884C27.7688 31.2211 27.6497 31.2534 27.5305 31.2846C27.4957 31.2937 27.461 31.3027 27.4262 31.3118C27.3388 31.3343 27.2519 31.3565 27.1649 31.3782C27.0987 31.3946 27.0321 31.4109 26.9655 31.4272C26.8952 31.4443 26.8253 31.461 26.755 31.4773C26.705 31.4889 26.6554 31.5005 26.6058 31.5121C26.5193 31.5317 26.4327 31.5513 26.3461 31.5702C26.285 31.584 26.224 31.597 26.1629 31.6101C26.0937 31.625 26.0246 31.6395 25.9554 31.6536C25.9039 31.6645 25.8517 31.675 25.8 31.6852C25.7045 31.7044 25.6087 31.7233 25.5132 31.7414C25.4788 31.748 25.4447 31.7545 25.4107 31.7607C25.3167 31.7785 25.2227 31.7955 25.1284 31.8122C25.0795 31.8209 25.0311 31.8292 24.9822 31.8376C24.9045 31.851 24.8268 31.8641 24.7491 31.8768C24.6818 31.8877 24.6144 31.8982 24.5471 31.9087C24.5008 31.916 24.4546 31.9232 24.4087 31.9301C24.314 31.9446 24.2193 31.9584 24.1245 31.9718C24.0872 31.9769 24.0494 31.9824 24.0117 31.9875C23.9255 31.9991 23.8389 32.0107 23.7527 32.0216C23.692 32.0295 23.6306 32.0372 23.5695 32.0444C23.4981 32.0531 23.4274 32.0615 23.3564 32.0695C23.2861 32.0774 23.2158 32.0854 23.1451 32.0927C23.0826 32.0996 23.0204 32.1057 22.9579 32.1123C22.8861 32.1192 22.8139 32.1261 22.7418 32.133C22.6815 32.1384 22.6212 32.1438 22.5605 32.1489C22.5013 32.154 22.4421 32.1587 22.3829 32.1634C22.2989 32.17 22.2149 32.1765 22.1305 32.1823C22.1109 32.1838 22.0913 32.1852 22.0713 32.1863C21.9644 32.1936 21.8571 32.2005 21.7501 32.2066C21.2192 32.2364 20.6882 32.2516 20.1573 32.2516C16.4834 32.2516 12.8136 31.5317 9.15417 30.0963L9.30218 30.1532L9.04835 30.163L8.86149 30.1674L8.4874 30.1707C5.87322 30.1707 3.26358 29.6547 0.664174 28.6264C0.262707 28.4678 0 28.0861 0 27.6615V23.9284C0 20.5699 2.02879 17.6758 4.95045 16.3604C3.86558 15.4086 3.18291 14.0246 3.18291 12.4843C3.18291 9.61121 5.55763 7.28245 8.48743 7.28245C11.4169 7.28245 13.792 9.61121 13.792 12.4843C13.792 13.2623 13.6177 14.0007 13.3054 14.6632C13.6388 14.4252 13.9847 14.2053 14.3418 14.0039L14.4761 13.9296C14.4879 13.923 14.5001 13.9165 14.512 13.91C14.5353 13.8973 14.5586 13.8846 14.5823 13.8719C14.6193 13.8523 14.6566 13.8327 14.6936 13.8134C14.7203 13.7993 14.7473 13.7855 14.7743 13.7717C15.1447 13.5827 15.5266 13.4125 15.9184 13.2626C13.9917 11.9473 12.7311 9.75926 12.7311 7.28243C12.7311 3.26018 16.0557 0 20.1573 0L20.1572 7.22872e-05ZM20.1572 14.5653L19.9474 14.5678C19.816 14.5704 19.6851 14.5758 19.5548 14.5838C19.5374 14.5849 19.5204 14.586 19.5034 14.5871L19.5548 14.5838C19.4989 14.5874 19.4434 14.5911 19.3883 14.5954L19.5034 14.5871C19.4357 14.5914 19.3683 14.5969 19.3013 14.6027L19.3883 14.5954C19.1607 14.6132 18.935 14.639 18.7112 14.6723C18.7086 14.6727 18.7053 14.6731 18.7023 14.6734L18.7112 14.6723C18.6446 14.6825 18.5776 14.693 18.511 14.7043L18.7023 14.6734C18.6342 14.6836 18.5661 14.6945 18.4984 14.7061L18.511 14.7043C18.1739 14.762 17.842 14.8367 17.516 14.9285C17.5116 14.9296 17.5071 14.9307 17.5023 14.9321L17.516 14.9285C17.3255 14.9822 17.1368 15.0417 16.9506 15.1067C16.9255 15.1154 16.9003 15.1241 16.8752 15.1332L16.9506 15.1067C16.8977 15.1252 16.8448 15.1441 16.7923 15.1633L16.8751 15.1332C16.8174 15.1539 16.7601 15.1753 16.7027 15.197L16.7923 15.1633C16.7401 15.1825 16.6883 15.2021 16.6369 15.2224L16.7027 15.197C16.4378 15.2979 16.1788 15.41 15.9261 15.5327C15.9176 15.5363 15.9098 15.5399 15.9016 15.5439L15.9261 15.5327C15.6826 15.651 15.4454 15.7787 15.2142 15.9162C15.2031 15.922 15.1923 15.9285 15.1816 15.9347L15.2142 15.9162C14.466 16.3611 13.7848 16.9039 13.1898 17.5266C13.1883 17.5276 13.1872 17.5291 13.1858 17.5302L13.1898 17.5266C13.1513 17.5668 13.1132 17.6071 13.0759 17.6481C13.054 17.671 13.0329 17.6942 13.0118 17.7178L13.0759 17.6481C13.0266 17.7011 12.9778 17.7552 12.9301 17.8096C12.9034 17.8397 12.8772 17.8698 12.8509 17.9003L12.9301 17.8096C11.4836 19.4508 10.609 21.5894 10.609 23.9287V28.4168L10.7163 28.4568C10.8424 28.5028 10.969 28.5475 11.0952 28.5917C11.154 28.6121 11.2128 28.6324 11.2717 28.6523C11.6372 28.7772 12.0021 28.8944 12.3672 29.0036C12.5511 29.0587 12.735 29.1117 12.9189 29.1629C13.3685 29.288 13.8181 29.4016 14.2672 29.5032C14.5092 29.558 14.7508 29.6095 14.9928 29.6578C15.2851 29.7159 15.5771 29.7688 15.869 29.8171C16.0403 29.8454 16.2113 29.8719 16.3826 29.8966C16.635 29.9332 16.8869 29.9662 17.1393 29.9956C17.4338 30.0297 17.7283 30.0591 18.0229 30.0834C18.1261 30.0918 18.229 30.0997 18.3318 30.107C18.5361 30.1212 18.7407 30.1331 18.9449 30.1426C19.2236 30.1556 19.5014 30.1643 19.7793 30.1683L19.756 30.1672L19.7793 30.1683L20.1571 30.1709L20.5349 30.1683C20.7514 30.1651 20.9682 30.1593 21.1846 30.1505C21.2268 30.1491 21.269 30.1473 21.3116 30.1455L21.1846 30.1505C21.2905 30.1466 21.3963 30.1418 21.5018 30.136L21.3116 30.1455C21.4389 30.1397 21.5658 30.1331 21.6931 30.1255L21.5018 30.136C21.6413 30.1291 21.7811 30.1204 21.9206 30.111L21.6931 30.1255C21.8207 30.1179 21.948 30.1095 22.0753 30.1001L21.9206 30.111C22.0427 30.1026 22.1648 30.0936 22.2873 30.0838L22.0753 30.1001C22.2063 30.0903 22.3376 30.0798 22.4686 30.0682L22.2873 30.0838C22.405 30.074 22.5226 30.0635 22.6403 30.0522L22.4686 30.0682C22.5974 30.0566 22.7261 30.0442 22.8549 30.0308L22.6403 30.0522C22.7994 30.037 22.9585 30.0203 23.1173 30.0021L22.8549 30.0308C22.9715 30.0188 23.0877 30.0058 23.2042 29.9923L23.1173 30.0021C23.222 29.9905 23.3263 29.9778 23.4307 29.9648L23.2042 29.9923C23.3541 29.9746 23.5039 29.9557 23.6538 29.9357L23.4307 29.9648C23.5491 29.9499 23.6671 29.9339 23.7855 29.9176L23.6538 29.9357C23.7751 29.9194 23.8965 29.902 24.0179 29.8842L23.7855 29.9176C23.9276 29.8976 24.0697 29.8766 24.2118 29.8545L24.0179 29.8842C24.1374 29.8664 24.2569 29.8476 24.3764 29.8283L24.2118 29.8545C24.3561 29.832 24.5008 29.8084 24.6451 29.7833L24.3764 29.8283C24.4952 29.8091 24.614 29.7888 24.7324 29.7681L24.6451 29.7833C24.7653 29.7627 24.8852 29.7409 25.0054 29.7184L24.7324 29.7681C24.883 29.7416 25.0332 29.7137 25.1838 29.6846L25.0054 29.7184C25.1116 29.6988 25.2178 29.6781 25.324 29.6571L25.1838 29.6846C25.3274 29.6571 25.4709 29.628 25.6145 29.5979L25.324 29.6571C25.4558 29.6309 25.5871 29.6037 25.7185 29.5758L25.6145 29.5979C25.7277 29.574 25.8406 29.5497 25.9538 29.5243L25.7185 29.5758C25.8594 29.5457 26 29.5145 26.141 29.4818L25.9538 29.5243C26.0788 29.4963 26.2035 29.4677 26.3286 29.4379L26.141 29.4818C26.2664 29.4531 26.3922 29.423 26.5177 29.3925L26.3286 29.4379C26.4507 29.4089 26.5724 29.3791 26.6946 29.3486L26.5177 29.3925C26.6609 29.3574 26.8044 29.3211 26.9476 29.2837L26.6946 29.3486C26.8022 29.3214 26.9095 29.2938 27.0172 29.2655L26.9476 29.2837C27.062 29.2539 27.1759 29.2231 27.2903 29.1919L27.0172 29.2655C27.1859 29.2209 27.3547 29.1748 27.5234 29.1269L27.2903 29.1919C27.4198 29.1563 27.5489 29.12 27.6784 29.0827L27.5234 29.1269C27.6422 29.0932 27.7609 29.0587 27.8797 29.0235L27.6784 29.0827C27.8098 29.0446 27.9408 29.0057 28.0721 28.9658L27.8797 29.0235C28.0026 28.9872 28.1258 28.9499 28.2486 28.9114L28.0721 28.9658C28.2001 28.9266 28.3282 28.8871 28.4562 28.8461L28.2486 28.9114C28.4081 28.8621 28.5672 28.8109 28.7267 28.7583L28.4562 28.8461C28.5831 28.8054 28.71 28.7641 28.8366 28.722L28.7267 28.7583C29.0223 28.661 29.318 28.5587 29.614 28.4513L29.7054 28.4168V23.9287C29.7054 21.6994 28.9106 19.6518 27.584 18.0439C27.557 18.0113 27.53 17.9786 27.5022 17.946L27.584 18.0439C27.547 17.9986 27.5093 17.954 27.4712 17.9097L27.5022 17.946C27.4183 17.8466 27.332 17.7493 27.244 17.6539C27.2284 17.6368 27.2129 17.6201 27.1974 17.6034L27.244 17.6539C27.2059 17.6122 27.1674 17.5711 27.1285 17.5305L27.1973 17.6034C27.0904 17.4891 26.9805 17.3774 26.868 17.2685C26.8569 17.2573 26.8455 17.246 26.834 17.2348L26.868 17.2685C26.8295 17.2312 26.7911 17.1941 26.7518 17.1575L26.834 17.2348C26.7903 17.1931 26.7467 17.1517 26.7023 17.1111L26.7518 17.1575C26.0322 16.4837 25.2056 15.9187 24.2994 15.4898C24.2694 15.4753 24.2394 15.4615 24.2091 15.4477L24.2994 15.4898C24.2283 15.4565 24.1565 15.4238 24.0847 15.3919C24.0422 15.3726 23.9996 15.3541 23.9567 15.336L24.0847 15.3919C24.0337 15.369 23.9823 15.3469 23.9305 15.3251L23.9567 15.336C23.9034 15.3135 23.8502 15.2914 23.7969 15.2696L23.9305 15.3251C23.8605 15.2953 23.7902 15.2667 23.7195 15.2387L23.7969 15.2696C23.7336 15.2442 23.67 15.2191 23.6063 15.1948L23.7195 15.2387C23.6674 15.2184 23.6148 15.1981 23.5623 15.1785L23.6063 15.1948C23.415 15.1223 23.2215 15.0559 23.0254 14.9956C23.0047 14.9891 22.984 14.9826 22.9629 14.9764L23.0254 14.9956C22.9566 14.9742 22.8874 14.9539 22.8178 14.9339L22.9629 14.9764C22.9059 14.959 22.8485 14.9423 22.7912 14.9263L22.8178 14.9339C22.5584 14.8603 22.295 14.7975 22.0282 14.7456C22.0149 14.7427 22.0019 14.7402 21.989 14.7376L22.0282 14.7456C21.8957 14.7195 21.7625 14.6966 21.6282 14.6763C21.6171 14.6741 21.6056 14.6723 21.5942 14.6709L21.6282 14.6763C21.4872 14.6546 21.3452 14.6364 21.2023 14.6212C21.192 14.6197 21.1816 14.6186 21.1713 14.6175L21.2023 14.6212C21.1376 14.6143 21.0728 14.6077 21.0081 14.6023L21.1713 14.6175C21.0898 14.6092 21.0081 14.6019 20.9259 14.5954L21.0081 14.6023C20.9485 14.5972 20.8886 14.5925 20.8286 14.5882L20.9259 14.5954C20.8638 14.5903 20.8012 14.5863 20.7387 14.5823L20.8286 14.5882C20.7591 14.5834 20.6895 14.5794 20.6199 14.5762L20.7387 14.5823C20.6743 14.5787 20.6103 14.5755 20.5456 14.5729L20.6199 14.5762C20.4664 14.5689 20.3121 14.5653 20.157 14.5653L20.1572 14.5653ZM31.8271 17.6866C31.2322 17.6866 30.6497 17.7664 30.0914 17.9214C31.1922 19.6674 31.8271 21.7255 31.8271 23.9288V28.0904C33.9414 28.0904 36.059 27.7112 38.1851 26.9503L38.1925 26.9471V23.9289C38.1925 20.5344 35.4296 17.7727 31.9888 17.6885L31.8271 17.6866ZM8.48723 17.6866C4.97175 17.6866 2.12189 20.4813 2.12189 23.9288V26.9473L2.4845 27.074C4.37935 27.7144 6.26786 28.0514 8.15352 28.087L8.48728 28.0903V23.9287C8.48728 21.7254 9.12222 19.6673 10.2226 17.9213C9.66463 17.7663 9.08223 17.6865 8.48728 17.6865L8.48723 17.6866ZM31.8271 9.36343C30.0695 9.36343 28.6446 10.7608 28.6446 12.4847C28.6446 14.2087 30.0695 15.606 31.8271 15.606C33.5851 15.606 35.01 14.2087 35.01 12.4847C35.01 10.7608 33.5851 9.36343 31.8271 9.36343ZM8.48723 9.36343C6.72925 9.36343 5.30432 10.7608 5.30432 12.4847C5.30432 14.2087 6.72925 15.606 8.48723 15.606C10.2448 15.606 11.6698 14.2087 11.6698 12.4847C11.6698 10.7608 10.2448 9.36343 8.48723 9.36343ZM20.1572 2.081C17.2274 2.081 14.8527 4.40977 14.8527 7.28287C14.8527 10.156 17.2274 12.4847 20.1572 12.4847C23.087 12.4847 25.4617 10.156 25.4617 7.28287C25.4617 4.40977 23.087 2.081 20.1572 2.081Z" fill="#A65E34"/>
</svg>
