<svg width="41" height="41" viewBox="0 0 41 41" fill="none" xmlns="http://www.w3.org/2000/svg">
<path d="M39.8894 10.1174L39.8906 10.1187C39.9077 10.1375 39.9198 10.1549 39.9234 10.1601C39.9701 10.2191 40.0079 10.2839 40.036 10.3548L40.0372 10.3577L40.0398 10.3635C40.0434 10.3718 40.0509 10.3895 40.0577 10.4119C40.0774 10.4755 40.0954 10.5544 40.0954 10.6444V29.4515C40.0954 29.7457 39.9308 30.0159 39.6679 30.1498L20.8644 39.7926C20.8636 39.7931 20.8628 39.7935 20.862 39.7939C20.8383 39.8061 20.8163 39.8137 20.7982 39.8185C20.7135 39.854 20.6137 39.8809 20.5036 39.8809C20.3935 39.8809 20.2939 39.8541 20.2099 39.8192C20.1917 39.8143 20.1693 39.8067 20.1451 39.7942L20.1456 39.7945L20.2836 39.5255L20.1428 39.793L39.8894 10.1174ZM39.8894 10.1174C39.846 10.0703 39.7905 10.0187 39.7197 9.97529L39.7198 9.97526L39.7158 9.97292C39.7027 9.96515 39.6903 9.95896 39.6801 9.95431C39.6729 9.94991 39.6649 9.94542 39.6562 9.94106L39.6534 9.93967L20.8473 0.77775C20.8471 0.777657 20.8469 0.777565 20.8468 0.777473C20.6304 0.67114 20.3755 0.671128 20.1591 0.777448C20.1588 0.777549 20.1586 0.777651 20.1584 0.777753L1.35239 9.93967L1.35238 9.93966L1.34959 9.94105C1.34025 9.94572 1.33182 9.95052 1.32432 9.95515C1.31772 9.95815 1.30989 9.96191 1.30134 9.96649L1.29355 9.97066L1.28601 9.97529C1.21521 10.0187 1.15973 10.0703 1.11633 10.1174L1.11632 10.1174L1.11511 10.1188C1.0983 10.1373 1.08633 10.1544 1.08254 10.1598L1.08249 10.1599C1.03351 10.2215 0.997051 10.2874 0.970096 10.3541L0.970084 10.354L0.969807 10.3548L0.968953 10.3567L0.966751 10.3616C0.963474 10.3691 0.956049 10.386 0.949254 10.407L0.948973 10.4069L0.945426 10.4198C0.929795 10.4766 0.911705 10.5545 0.911705 10.6444V29.4516C0.911705 29.7458 1.07634 30.0157 1.33871 30.1499M39.8894 10.1174L1.33871 30.1499M1.33871 30.1499L1.47637 29.8808L1.33843 30.1498L1.33871 30.1499ZM20.7037 39.5299C20.6401 39.5595 20.5725 39.5786 20.5036 39.5786C20.4346 39.5786 20.367 39.5595 20.3034 39.5302L20.7037 39.5299ZM20.7037 39.5299C20.7101 39.5268 20.7172 39.5285 20.7235 39.5252L20.7037 39.5299ZM13.6272 26.1577L13.627 26.1576L8.02576 23.2317L13.6272 26.1577ZM13.6272 26.1577C13.7412 26.2171 13.8656 26.2468 13.9904 26.2468C14.1313 26.2468 14.2722 26.209 14.3975 26.1329L14.3977 26.1328M13.6272 26.1577L14.3977 26.1328M14.3977 26.1328C14.632 25.9902 14.775 25.7364 14.775 25.4621V18.2326L19.7197 20.7687V37.8123L2.48153 28.9719L2.48161 11.9289M14.3977 26.1328L2.48161 11.9289M2.48161 11.9289L7.60394 14.5557V22.5363C7.60394 22.8287 7.76626 23.0965 8.02527 23.2315L2.48161 11.9289ZM37.5565 10.6624L20.5039 19.4073L15.6029 16.8939L32.6395 8.26699L37.5565 10.6624ZM9.17311 22.0601V15.3599L13.2056 17.4277V24.1666L9.17311 22.0601ZM10.1164 14.0804L27.0119 5.52498L30.8696 7.40412L13.8769 16.0094L10.1164 14.0804ZM20.5043 2.35474L25.2419 4.66268L8.39122 13.1956L3.45178 10.6624L20.5043 2.35474ZM38.527 11.9297V28.9725L21.2888 37.8129V20.7693L38.527 11.9297Z" fill="#A65E34" stroke="#A65E34" stroke-width="0.604569"/>
</svg>
