<svg width="12" height="11" viewBox="0 0 12 11" fill="none" xmlns="http://www.w3.org/2000/svg">
<path d="M1.11082 0.658569C0.657438 0.701118 0.293374 1.06201 0.284546 1.50019C0.383626 4.46993 1.32381 6.86123 3.03226 8.49861C4.74082 10.1358 7.19337 10.9942 10.238 10.989C10.7376 10.9912 11.0819 10.569 11.0912 10.1435C11.0963 9.44176 11.1017 8.73834 11.1066 8.03748C11.1066 7.54783 10.6628 7.23008 10.2534 7.22656C9.62275 7.22905 8.74347 6.99984 8.03203 6.82304C7.91056 6.7937 7.77511 6.83127 7.68615 6.91911L6.514 8.0567C5.10191 7.20873 4.45519 6.58397 3.58554 5.21675L4.74996 4.09076C4.84424 3.99974 4.88396 3.85604 4.8499 3.72953C4.65818 3.01176 4.34206 2.07655 4.39259 1.4197C4.34267 0.906966 3.8561 0.656066 3.47025 0.658811H1.11057L1.11082 0.658569ZM1.11468 1.39649H3.48599C3.60514 1.39872 3.60514 1.39872 3.66279 1.50792C3.64091 2.29954 3.90067 3.09922 4.0778 3.71387L2.85573 4.90524C2.73667 5.02087 2.71145 5.22101 2.79809 5.36255C3.84928 7.06647 4.62888 7.82258 6.37987 8.84441C6.51764 8.92445 6.7073 8.90137 6.82183 8.79062L8.05549 7.58777C8.72461 7.75685 9.52736 7.96727 10.2575 7.96435C10.3104 7.9743 10.3626 8.04928 10.3689 8.05657L10.3536 10.1396C10.3279 10.1996 10.3689 10.2533 10.2152 10.251C7.32056 10.251 5.08694 9.44319 3.54355 7.96447C1.996 6.48162 1.11689 4.30231 1.02246 1.47356C1.02246 1.39893 1.02246 1.39893 1.11468 1.3967L1.11468 1.39649Z" fill="#F0F1F6"/>
</svg>
