<svg width="37" height="30" viewBox="0 0 37 30" fill="none" xmlns="http://www.w3.org/2000/svg">
<path d="M16.2437 11.2074C16.2437 13.5975 15.7186 15.7704 14.6683 17.7259C13.6181 19.7177 12.3869 21.4379 10.9745 22.8864C9.52595 24.3712 7.93253 25.693 6.19425 26.8519C4.45598 28.0469 3.06174 28.9161 2.01153 29.4593L0.164613 26.2543C1.64939 25.3852 3.06174 24.4799 4.40166 23.5383C5.77779 22.6329 6.828 21.7638 7.55228 20.9309C8.53006 19.8445 9.30866 18.7037 9.88809 17.5087C10.4675 16.3498 10.8297 14.8107 10.9745 12.8914H8.3671C6.08561 12.8914 4.31112 12.3119 3.04363 11.1531C1.77614 9.99423 1.14239 8.38271 1.14239 6.3185C1.14239 4.83373 1.72182 3.43949 2.88067 2.13578C4.03952 0.79586 5.61483 0.1259 7.6066 0.1259C10.6848 0.1259 12.8939 1.158 14.2338 3.2222C15.5737 5.25019 16.2437 7.91192 16.2437 11.2074ZM36.3425 11.2074C36.3425 13.5975 35.8174 15.7704 34.7672 17.7259C33.7169 19.7177 32.4857 21.4379 31.0733 22.8864C29.6248 24.3712 28.0313 25.693 26.2931 26.8519C24.5548 28.0469 23.1605 28.9161 22.1103 29.4593L20.2634 26.2543C21.7482 25.3852 23.1605 24.4799 24.5005 23.5383C25.8766 22.6329 26.9268 21.7638 27.6511 20.9309C28.6289 19.8445 29.4075 18.7037 29.9869 17.5087C30.5663 16.3498 30.9285 14.8107 31.0733 12.8914H28.4659C26.1844 12.8914 24.4099 12.3119 23.1424 11.1531C21.8749 9.99423 21.2412 8.38271 21.2412 6.3185C21.2412 4.83373 21.8206 3.43949 22.9795 2.13578C24.1383 0.79586 25.7136 0.1259 27.7054 0.1259C30.7836 0.1259 32.9927 1.158 34.3326 3.2222C35.6725 5.25019 36.3425 7.91192 36.3425 11.2074Z" fill="#A65E34"/>
</svg>
