<?xml version="1.0" encoding="utf-8"?><svg viewBox="0 0 76 47" xmlns="http://www.w3.org/2000/svg" xmlns:xlink="http://www.w3.org/1999/xlink"><style>:root>svg{display:none}:root>svg:target{display:block}</style><svg viewBox="0 0 17 17" id="Star" xmlns="http://www.w3.org/2000/svg"><path d="M8.43.944l1.878 5.778h6.076l-4.916 3.571 1.878 5.778L8.43 12.5l-4.915 3.571 1.877-5.778L.478 6.722h6.075L8.431.944z"/></svg><svg viewBox="0 0 26 24" id="about1" xmlns="http://www.w3.org/2000/svg"><mask id="ba" maskUnits="userSpaceOnUse" x=".192" y="-.695" width="26" height="24"><path d="M.192-.695h26v24h-26z"/><path d="M16.38 12.482a5.26 5.26 0 013.548-1.333c.947-.02 1.88.22 2.684.691a4.69 4.69 0 011.845 1.957c.108.23.393.334.637.234a.444.444 0 00.25-.598c-.676-1.413-1.973-2.48-3.553-2.925.79-.622 1.24-1.542 1.232-2.51 0-1.736-1.388-3.15-3.094-3.15a3.25 3.25 0 00-1.794.587 2.939 2.939 0 00-1.098 1.456 6.124 6.124 0 00-1.885-.926c.789-.622 1.24-1.542 1.232-2.51 0-1.737-1.388-3.15-3.094-3.15s-3.093 1.413-3.093 3.15c-.01.968.442 1.888 1.231 2.51-.683.2-1.322.514-1.887.926a2.938 2.938 0 00-1.098-1.456 3.25 3.25 0 00-1.794-.586c-1.706 0-3.094 1.413-3.094 3.15-.01.967.443 1.887 1.231 2.51-1.58.444-2.876 1.511-3.552 2.924a.428.428 0 00-.008.348.469.469 0 00.256.252c.118.048.252.05.371.006a.471.471 0 00.267-.242 4.688 4.688 0 011.845-1.957 5.12 5.12 0 012.685-.691 5.255 5.255 0 013.55 1.335c.013.94.46 1.83 1.227 2.434a6.154 6.154 0 00-1.886.927 2.938 2.938 0 00-1.099-1.456 3.249 3.249 0 00-1.793-.586c-1.706 0-3.094 1.413-3.094 3.15-.01.967.443 1.888 1.232 2.51-1.58.445-2.876 1.511-3.553 2.923a.43.43 0 00-.009.349.468.468 0 00.257.252c.118.048.251.05.371.006a.471.471 0 00.267-.242 4.693 4.693 0 011.846-1.957 5.125 5.125 0 012.684-.69c.947-.02 1.88.22 2.684.69a4.692 4.692 0 011.845 1.957c.107.23.393.334.637.233a.444.444 0 00.25-.598c-.678-1.412-1.975-2.48-3.555-2.924.789-.622 1.24-1.542 1.231-2.509l-.003-.06a5.327 5.327 0 013.55-1.334 5.33 5.33 0 013.55 1.334l-.003.06c-.01.967.442 1.887 1.23 2.51-1.58.444-2.876 1.51-3.554 2.923a.444.444 0 00.25.599c.244.1.53-.004.636-.234a4.692 4.692 0 011.846-1.957 5.122 5.122 0 012.684-.69 5.126 5.126 0 012.684.69 4.694 4.694 0 011.846 1.957c.107.23.392.334.637.233a.444.444 0 00.249-.598c-.677-1.412-1.974-2.478-3.553-2.923.789-.622 1.24-1.543 1.232-2.51 0-1.737-1.388-3.15-3.094-3.15a3.247 3.247 0 00-1.793.586 2.937 2.937 0 00-1.099 1.455 6.128 6.128 0 00-1.884-.925c.767-.606 1.215-1.496 1.227-2.437zm-9.73 6.712c-1.173 0-2.126-1.005-2.126-2.241 0-1.236.953-2.242 2.126-2.242 1.097 0 2.002.881 2.114 2.008.008.083.012.158.012.234 0 1.236-.954 2.241-2.126 2.241zm13.28-4.483c1.173 0 2.126 1.006 2.126 2.242s-.953 2.241-2.126 2.241c-1.172 0-2.126-1.005-2.126-2.241 0-.076.004-.15.011-.224.112-1.136 1.018-2.018 2.115-2.018zm0-8.954c1.173 0 2.126 1.006 2.126 2.242s-.953 2.241-2.126 2.241c-1.172 0-2.126-1.005-2.126-2.241 0-.076.004-.15.011-.223.112-1.138 1.018-2.019 2.115-2.019zm-6.64-4.544c1.173 0 2.127 1.006 2.127 2.242s-.954 2.242-2.126 2.242-2.126-1.006-2.126-2.242.954-2.242 2.126-2.242zm0 5.392a5.262 5.262 0 013.55 1.334l-.003.06c-.01.967.442 1.887 1.23 2.51a6.131 6.131 0 00-1.847.896 2.938 2.938 0 00-1.089-1.526 3.26 3.26 0 00-1.84-.62 3.26 3.26 0 00-1.841.621c-.527.386-.909.92-1.089 1.525a6.124 6.124 0 00-1.85-.897c.79-.622 1.241-1.542 1.232-2.51 0-.02-.003-.039-.003-.058a5.27 5.27 0 013.55-1.335zm-6.64-.848c1.097 0 2.002.881 2.114 2.008.008.084.012.158.012.234 0 1.236-.954 2.241-2.126 2.241-1.173 0-2.126-1.005-2.126-2.241 0-1.236.953-2.242 2.126-2.242zm6.65 8.893c-1.187-.006-2.135-1.008-2.135-2.24 0-1.237.953-2.242 2.126-2.242 1.172 0 2.126 1.005 2.126 2.241 0 1.233-.95 2.236-2.117 2.241z"/></mask><path d="M16.38 12.482a5.26 5.26 0 013.548-1.333c.947-.02 1.88.22 2.684.691a4.69 4.69 0 011.845 1.957c.108.23.393.334.637.234a.444.444 0 00.25-.598c-.676-1.413-1.973-2.48-3.553-2.925.79-.622 1.24-1.542 1.232-2.51 0-1.736-1.388-3.15-3.094-3.15a3.25 3.25 0 00-1.794.587 2.939 2.939 0 00-1.098 1.456 6.124 6.124 0 00-1.885-.926c.789-.622 1.24-1.542 1.232-2.51 0-1.737-1.388-3.15-3.094-3.15s-3.093 1.413-3.093 3.15c-.01.968.442 1.888 1.231 2.51-.683.2-1.322.514-1.887.926a2.938 2.938 0 00-1.098-1.456 3.25 3.25 0 00-1.794-.586c-1.706 0-3.094 1.413-3.094 3.15-.01.967.443 1.887 1.231 2.51-1.58.444-2.876 1.511-3.552 2.924a.428.428 0 00-.008.348.469.469 0 00.256.252c.118.048.252.05.371.006a.471.471 0 00.267-.242 4.688 4.688 0 011.845-1.957 5.12 5.12 0 012.685-.691 5.255 5.255 0 013.55 1.335c.013.94.46 1.83 1.227 2.434a6.154 6.154 0 00-1.886.927 2.938 2.938 0 00-1.099-1.456 3.249 3.249 0 00-1.793-.586c-1.706 0-3.094 1.413-3.094 3.15-.01.967.443 1.888 1.232 2.51-1.58.445-2.876 1.511-3.553 2.923a.43.43 0 00-.009.349.468.468 0 00.257.252c.118.048.251.05.371.006a.471.471 0 00.267-.242 4.693 4.693 0 011.846-1.957 5.125 5.125 0 012.684-.69c.947-.02 1.88.22 2.684.69a4.692 4.692 0 011.845 1.957c.107.23.393.334.637.233a.444.444 0 00.25-.598c-.678-1.412-1.975-2.48-3.555-2.924.789-.622 1.24-1.542 1.231-2.509l-.003-.06a5.327 5.327 0 013.55-1.334 5.33 5.33 0 013.55 1.334l-.003.06c-.01.967.442 1.887 1.23 2.51-1.58.444-2.876 1.51-3.554 2.923a.444.444 0 00.25.599c.244.1.53-.004.636-.234a4.692 4.692 0 011.846-1.957 5.122 5.122 0 012.684-.69 5.126 5.126 0 012.684.69 4.694 4.694 0 011.846 1.957c.107.23.392.334.637.233a.444.444 0 00.249-.598c-.677-1.412-1.974-2.478-3.553-2.923.789-.622 1.24-1.543 1.232-2.51 0-1.737-1.388-3.15-3.094-3.15a3.247 3.247 0 00-1.793.586 2.937 2.937 0 00-1.099 1.455 6.128 6.128 0 00-1.884-.925c.767-.606 1.215-1.496 1.227-2.437zm-9.73 6.712c-1.173 0-2.126-1.005-2.126-2.241 0-1.236.953-2.242 2.126-2.242 1.097 0 2.002.881 2.114 2.008.008.083.012.158.012.234 0 1.236-.954 2.241-2.126 2.241zm13.28-4.483c1.173 0 2.126 1.006 2.126 2.242s-.953 2.241-2.126 2.241c-1.172 0-2.126-1.005-2.126-2.241 0-.076.004-.15.011-.224.112-1.136 1.018-2.018 2.115-2.018zm0-8.954c1.173 0 2.126 1.006 2.126 2.242s-.953 2.241-2.126 2.241c-1.172 0-2.126-1.005-2.126-2.241 0-.076.004-.15.011-.223.112-1.138 1.018-2.019 2.115-2.019zm-6.64-4.544c1.173 0 2.127 1.006 2.127 2.242s-.954 2.242-2.126 2.242-2.126-1.006-2.126-2.242.954-2.242 2.126-2.242zm0 5.392a5.262 5.262 0 013.55 1.334l-.003.06c-.01.967.442 1.887 1.23 2.51a6.131 6.131 0 00-1.847.896 2.938 2.938 0 00-1.089-1.526 3.26 3.26 0 00-1.84-.62 3.26 3.26 0 00-1.841.621c-.527.386-.909.92-1.089 1.525a6.124 6.124 0 00-1.85-.897c.79-.622 1.241-1.542 1.232-2.51 0-.02-.003-.039-.003-.058a5.27 5.27 0 013.55-1.335zm-6.64-.848c1.097 0 2.002.881 2.114 2.008.008.084.012.158.012.234 0 1.236-.954 2.241-2.126 2.241-1.173 0-2.126-1.005-2.126-2.241 0-1.236.953-2.242 2.126-2.242zm6.65 8.893c-1.187-.006-2.135-1.008-2.135-2.24 0-1.237.953-2.242 2.126-2.242 1.172 0 2.126 1.005 2.126 2.241 0 1.233-.95 2.236-2.117 2.241z"/><path d="M16.38 12.482a5.26 5.26 0 013.548-1.333c.947-.02 1.88.22 2.684.691a4.69 4.69 0 011.845 1.957c.108.23.393.334.637.234a.444.444 0 00.25-.598c-.676-1.413-1.973-2.48-3.553-2.925.79-.622 1.24-1.542 1.232-2.51 0-1.736-1.388-3.15-3.094-3.15a3.25 3.25 0 00-1.794.587 2.939 2.939 0 00-1.098 1.456 6.124 6.124 0 00-1.885-.926c.789-.622 1.24-1.542 1.232-2.51 0-1.737-1.388-3.15-3.094-3.15s-3.093 1.413-3.093 3.15c-.01.968.442 1.888 1.231 2.51-.683.2-1.322.514-1.887.926a2.938 2.938 0 00-1.098-1.456 3.25 3.25 0 00-1.794-.586c-1.706 0-3.094 1.413-3.094 3.15-.01.967.443 1.887 1.231 2.51-1.58.444-2.876 1.511-3.552 2.924a.428.428 0 00-.008.348.469.469 0 00.256.252c.118.048.252.05.371.006a.471.471 0 00.267-.242 4.688 4.688 0 011.845-1.957 5.12 5.12 0 012.685-.691 5.255 5.255 0 013.55 1.335c.013.94.46 1.83 1.227 2.434a6.154 6.154 0 00-1.886.927 2.938 2.938 0 00-1.099-1.456 3.249 3.249 0 00-1.793-.586c-1.706 0-3.094 1.413-3.094 3.15-.01.967.443 1.888 1.232 2.51-1.58.445-2.876 1.511-3.553 2.923a.43.43 0 00-.009.349.468.468 0 00.257.252c.118.048.251.05.371.006a.471.471 0 00.267-.242 4.693 4.693 0 011.846-1.957 5.125 5.125 0 012.684-.69c.947-.02 1.88.22 2.684.69a4.692 4.692 0 011.845 1.957c.107.23.393.334.637.233a.444.444 0 00.25-.598c-.678-1.412-1.975-2.48-3.555-2.924.789-.622 1.24-1.542 1.231-2.509l-.003-.06a5.327 5.327 0 013.55-1.334 5.33 5.33 0 013.55 1.334l-.003.06c-.01.967.442 1.887 1.23 2.51-1.58.444-2.876 1.51-3.554 2.923a.444.444 0 00.25.599c.244.1.53-.004.636-.234a4.692 4.692 0 011.846-1.957 5.122 5.122 0 012.684-.69 5.126 5.126 0 012.684.69 4.694 4.694 0 011.846 1.957c.107.23.392.334.637.233a.444.444 0 00.249-.598c-.677-1.412-1.974-2.478-3.553-2.923.789-.622 1.24-1.543 1.232-2.51 0-1.737-1.388-3.15-3.094-3.15a3.247 3.247 0 00-1.793.586 2.937 2.937 0 00-1.099 1.455 6.128 6.128 0 00-1.884-.925c.767-.606 1.215-1.496 1.227-2.437zm-9.73 6.712c-1.173 0-2.126-1.005-2.126-2.241 0-1.236.953-2.242 2.126-2.242 1.097 0 2.002.881 2.114 2.008.008.083.012.158.012.234 0 1.236-.954 2.241-2.126 2.241zm13.28-4.483c1.173 0 2.126 1.006 2.126 2.242s-.953 2.241-2.126 2.241c-1.172 0-2.126-1.005-2.126-2.241 0-.076.004-.15.011-.224.112-1.136 1.018-2.018 2.115-2.018zm0-8.954c1.173 0 2.126 1.006 2.126 2.242s-.953 2.241-2.126 2.241c-1.172 0-2.126-1.005-2.126-2.241 0-.076.004-.15.011-.223.112-1.138 1.018-2.019 2.115-2.019zm-6.64-4.544c1.173 0 2.127 1.006 2.127 2.242s-.954 2.242-2.126 2.242-2.126-1.006-2.126-2.242.954-2.242 2.126-2.242zm0 5.392a5.262 5.262 0 013.55 1.334l-.003.06c-.01.967.442 1.887 1.23 2.51a6.131 6.131 0 00-1.847.896 2.938 2.938 0 00-1.089-1.526 3.26 3.26 0 00-1.84-.62 3.26 3.26 0 00-1.841.621c-.527.386-.909.92-1.089 1.525a6.124 6.124 0 00-1.85-.897c.79-.622 1.241-1.542 1.232-2.51 0-.02-.003-.039-.003-.058a5.27 5.27 0 013.55-1.335zm-6.64-.848c1.097 0 2.002.881 2.114 2.008.008.084.012.158.012.234 0 1.236-.954 2.241-2.126 2.241-1.173 0-2.126-1.005-2.126-2.241 0-1.236.953-2.242 2.126-2.242zm6.65 8.893c-1.187-.006-2.135-1.008-2.135-2.24 0-1.237.953-2.242 2.126-2.242 1.172 0 2.126 1.005 2.126 2.241 0 1.233-.95 2.236-2.117 2.241z" mask="url(#ba)"/></svg><svg viewBox="0 0 13 25" id="about2" xmlns="http://www.w3.org/2000/svg"><path d="M12.19 24.542a.636.636 0 01-.898.06l-4.819-4.055-4.404 3.964a.63.63 0 01-.726.093.775.775 0 01-.396-.683L.798 1.113c-.003-.415.3-.75.679-.746l10.07.08c.379.002.687.341.69.757l.149 22.808a.78.78 0 01-.197.53zm-9.885-2.2l3.709-3.338a.635.635 0 01.848-.01l4.147 3.488-.135-20.536-8.704-.07.135 20.466zm5.767-15.47c-.402.442-.94.683-1.513.679a2.073 2.073 0 01-1.522-.704 2.505 2.505 0 01-.64-1.674 2.436 2.436 0 01.619-1.665c.402-.442.94-.684 1.512-.68a2.071 2.071 0 011.522.704c.409.45.636 1.044.64 1.675a2.436 2.436 0 01-.618 1.664zM5.99 4.58a.884.884 0 00-.224.604.91.91 0 00.232.607.752.752 0 00.552.256c.416.003.776-.394.773-.85a.91.91 0 00-.232-.608.752.752 0 00-.552-.256.73.73 0 00-.549.247z"/></svg><svg viewBox="0 0 22 23" id="about3" xmlns="http://www.w3.org/2000/svg"><path d="M.845 6.357a.761.761 0 00-.165.265.752.752 0 00-.036.251v14.491c0 .207.063.393.188.53a.665.665 0 00.503.214h14.227a.635.635 0 00.284-.075.745.745 0 00.205-.152l4.743-5.218c.13-.143.2-.297.2-.515V1.656a.776.776 0 00-.187-.53.665.665 0 00-.503-.213H6.077a.616.616 0 00-.49.228L.845 6.357zM18.67 2.4l-3.393 3.73h-3.352l3.392-3.73h3.351zM7.293 7.616h2.308v1.992H7.294V7.616zM10.01 6.13H8.238l3.391-3.73H13.4l-3.39 3.73zM6.36 2.4h3.353L6.32 6.13H2.969l3.39-3.73zM2.026 7.615h3.889v2.735c0 .207.062.393.187.53a.665.665 0 00.503.213h3.688c.2 0 .378-.074.503-.212a.775.775 0 00.188-.53V7.615h3.888V20.62H2.025V7.616zm17.588 8.237l-3.361 3.697V7.168l3.361-3.698v12.383z"/></svg><svg viewBox="0 0 17 17" id="about4" xmlns="http://www.w3.org/2000/svg"><path d="M6.559 16.204a.926.926 0 01-.607-.367L.836 9.219a1.049 1.049 0 01-.298-.743c.002-.284.115-.56.318-.753a.897.897 0 01.758-.242.936.936 0 01.65.444l4.373 5.647 8.325-11.917a.939.939 0 01.626-.447l-9.03 14.996zm0 0l.008.008h.123a.922.922 0 00.725-.407L16.46 2.868c.17-.21.25-.481.228-.752a1.034 1.034 0 00-.355-.707M6.559 16.204l9.775-14.795m0 0l-.15.176.15-.176z"/></svg><svg viewBox="0 0 13 12" id="foot1" xmlns="http://www.w3.org/2000/svg"><path opacity=".1" clip-rule="evenodd" d="M6.354 11.305a5.441 5.441 0 100-10.882 5.441 5.441 0 000 10.882z"/><g clip-path="url(#fa)"><path d="M7.545 4.673A1.555 1.555 0 019.1 6.227v1.814H8.064V6.227a.518.518 0 10-1.037 0v1.814H5.991V6.227a1.555 1.555 0 011.554-1.554zm-2.591.259H3.918v3.11h1.036v-3.11zm-.518-.777a.518.518 0 100-1.037.518.518 0 000 1.037z"/></g><defs><clipPath id="fa"><path transform="translate(3.4 2.6)" d="M0 0h6.218v6.218H0z"/></clipPath></defs></svg><svg viewBox="0 0 12 12" id="foot2" xmlns="http://www.w3.org/2000/svg"><path opacity=".1" clip-rule="evenodd" d="M5.9 11.305A5.441 5.441 0 105.9.423a5.441 5.441 0 000 10.882z"/><g clip-path="url(#ga)"><path d="M7.61 3.118h-.778a1.295 1.295 0 00-1.295 1.296v.777h-.778v1.036h.778V8.3h1.036V6.227h.777l.26-1.036H6.572v-.777a.26.26 0 01.26-.26h.776V3.119z"/></g><defs><clipPath id="ga"><path transform="translate(2.946 2.6)" d="M0 0h6.218v6.218H0z"/></clipPath></defs></svg><svg viewBox="0 0 13 12" id="foot3" xmlns="http://www.w3.org/2000/svg"><path opacity=".1" clip-rule="evenodd" d="M6.445 11.305a5.441 5.441 0 100-10.882 5.441 5.441 0 000 10.882z"/><g clip-path="url(#ha)" stroke-width=".622" stroke-linecap="round" stroke-linejoin="round"><path d="M5.046 3.688v3.11m3.109-1.555a.777.777 0 100-1.555.777.777 0 000 1.555zM5.046 8.351a.777.777 0 100-1.554.777.777 0 000 1.554zM8.155 5.243a2.332 2.332 0 01-2.332 2.332"/></g><defs><clipPath id="ha"><path transform="translate(3.491 2.91)" d="M0 0h6.218v6.218H0z"/></clipPath></defs></svg><svg viewBox="0 0 34 34" id="hero1" xmlns="http://www.w3.org/2000/svg"><path d="M22.654 21.305a1.38 1.38 0 01-.614-.145l-5.503-2.752a1.377 1.377 0 01-.761-1.23V7.546a1.376 1.376 0 012.752 0v8.78l4.742 2.372a1.376 1.376 0 01-.616 2.605zm-5.502 12.382c-9.104 0-16.51-7.406-16.51-16.51 0-9.104 7.406-16.51 16.51-16.51 9.104 0 16.51 7.406 16.51 16.51 0 9.104-7.406 16.51-16.51 16.51zm0-30.268c-7.587 0-13.758 6.172-13.758 13.758 0 7.586 6.171 13.758 13.758 13.758 7.586 0 13.758-6.172 13.758-13.758 0-7.586-6.172-13.758-13.758-13.758z"/></svg><svg viewBox="0 0 41 41" id="hero2" xmlns="http://www.w3.org/2000/svg"><path d="M39.89 10.117v.002a.769.769 0 01.145.236l.002.003.003.005a.782.782 0 01.056.28v18.808a.783.783 0 01-.428.699l-18.804 9.643h-.002a.317.317 0 01-.064.026.762.762 0 01-.294.062.766.766 0 01-.294-.062.324.324 0 01-.065-.025l.139-.268-.141.267 19.746-29.676zm0 0a.8.8 0 00-.17-.142l-.004-.002a.377.377 0 00-.036-.019.326.326 0 00-.024-.013l-.003-.001L20.847.778a.781.781 0 00-.689 0L1.352 9.94l-.002.001a.324.324 0 00-.026.014.393.393 0 00-.023.011l-.007.005-.008.004a.8.8 0 00-.17.142v.002a.78.78 0 00-.145.235H.97l-.001.003-.002.005a.31.31 0 00-.018.045l-.004.013a.84.84 0 00-.033.224v18.808c0 .294.164.564.427.698m38.55-20.033L1.34 30.15m0 0l.137-.27-.138.27zm19.365 9.38a.477.477 0 01-.2.049.48.48 0 01-.2-.049h.4zm0 0c.006-.003.013-.002.02-.005l-.02.005zm-7.077-13.372l-5.601-2.926 5.601 2.926zm0 0a.785.785 0 00.77-.025m-.77.025l.77-.025m0 0a.785.785 0 00.378-.67v-7.23l4.945 2.536v17.043l-17.238-8.84V11.929m11.916 14.204L2.482 11.929m0 0l5.122 2.627v7.98c0 .293.162.56.421.695L2.482 11.93zm35.074-1.267l-17.052 8.745-4.901-2.513L32.64 8.267l4.916 2.395zM9.174 22.06v-6.7l4.033 2.068v6.739L9.173 22.06zm.943-7.98l16.896-8.555 3.858 1.88-16.993 8.604-3.76-1.929zM20.504 2.355l4.738 2.308-16.85 8.533-4.94-2.534 17.052-8.307zm18.023 9.575v17.043l-17.238 8.84V20.769l17.238-8.84z"/></svg><svg viewBox="0 0 41 33" id="hero3" xmlns="http://www.w3.org/2000/svg"><path d="M20.157 0c4.102 0 7.426 3.26 7.426 7.282 0 2.477-1.26 4.665-3.187 5.981.287.11.568.23.844.36l.03.016.151.073.064.032.08.04.107.056.056.03a11.62 11.62 0 011.19.73l.09.063a5.096 5.096 0 01-.485-2.179c0-2.873 2.375-5.201 5.304-5.201 2.93 0 5.305 2.328 5.305 5.201 0 1.54-.683 2.925-1.768 3.877 2.922 1.315 4.95 4.209 4.95 7.567v3.733c0 .425-.262.807-.664.965-2.599 1.029-5.209 1.545-7.823 1.545-.374 0-.747-.01-1.121-.032l.306.014-.244.095c-.267.1-.535.198-.802.291l-.1.035-.315.107-.073.025a53.18 53.18 0 01-.31.101l-.16.05-.253.08a18.635 18.635 0 01-.522.154c-.104.03-.209.06-.313.088l-.032.01-.358.096-.104.027a35.797 35.797 0 01-.82.2c-.087.02-.173.04-.26.058l-.183.04a19.136 19.136 0 01-.363.075 26.375 26.375 0 01-.672.127l-.146.026a26.98 26.98 0 01-.233.039l-.202.032a19.563 19.563 0 01-.422.063l-.113.015a32.778 32.778 0 01-.656.082l-.21.024-.188.02-.216.02-.181.016-.178.014a25.802 25.802 0 01-.633.044c-.53.03-1.062.045-1.593.045-3.674 0-7.343-.72-11.003-2.156l.148.057-.254.01-.187.004-.374.004c-2.614 0-5.223-.516-7.823-1.545A1.04 1.04 0 010 27.661v-3.733c0-3.358 2.029-6.252 4.95-7.568a5.143 5.143 0 01-1.767-3.876c0-2.873 2.375-5.202 5.304-5.202 2.93 0 5.305 2.33 5.305 5.202 0 .778-.174 1.517-.487 2.18.334-.239.68-.459 1.037-.66l.134-.074.036-.02a11.182 11.182 0 01.182-.097l.08-.041c.37-.19.753-.36 1.144-.51-1.926-1.315-3.187-3.503-3.187-5.98C12.731 3.26 16.056 0 20.157 0zm0 14.565l-.21.003a9.46 9.46 0 00-.392.016c-.018 0-.035.002-.052.003l.052-.003-.167.011.115-.008a8.84 8.84 0 00-.202.016l.087-.008a9.781 9.781 0 00-.686.078h.01l-.201.031.191-.03c-.068.01-.136.02-.204.032l.013-.002a9.718 9.718 0 00-.995.224l-.014.004.014-.004c-.19.054-.38.114-.565.179l-.076.026.076-.026-.159.056.083-.03c-.058.02-.115.042-.172.064l.09-.034a7.02 7.02 0 00-.156.06l.066-.026a9.606 9.606 0 00-.801.347l.024-.011a9.59 9.59 0 00-.712.383l-.032.019.032-.019a9.555 9.555 0 00-2.024 1.61l-.004.004.004-.003a6.499 6.499 0 00-.178.19l.064-.069a7.424 7.424 0 00-.225.252l.08-.09a9.22 9.22 0 00-2.322 6.119v4.488l.107.04a31.182 31.182 0 001.651.547 29.336 29.336 0 002.626.654 27.625 27.625 0 002.146.338 26.925 26.925 0 001.806.147c.279.013.556.021.834.025h-.023.023l.378.003.378-.003c.216-.003.433-.009.65-.017l.127-.006-.127.006c.106-.004.211-.01.317-.015l-.19.01.381-.02-.191.01c.14-.007.28-.016.419-.025l-.228.014c.128-.007.255-.015.382-.025l-.154.011.366-.027-.212.016c.131-.01.263-.02.394-.032l-.182.016c.118-.01.236-.02.353-.032l-.171.016c.128-.011.257-.024.386-.037l-.215.021c.16-.015.319-.032.477-.05l-.262.029.35-.039-.088.01c.105-.011.21-.024.314-.037l-.227.027c.15-.017.3-.036.45-.056l-.223.029.354-.047-.131.018.364-.052-.233.034a29.8 29.8 0 00.427-.063l-.194.03c.12-.019.239-.037.358-.057l-.164.027c.144-.023.289-.047.433-.072l-.269.045c.12-.019.238-.04.356-.06l-.087.015c.12-.02.24-.042.36-.065l-.273.05c.151-.026.301-.054.452-.083l-.179.033.319-.06-.14.027c.143-.028.287-.057.43-.087l-.29.06.394-.082-.104.022c.114-.024.227-.048.34-.074l-.236.052c.141-.03.282-.061.423-.094l-.187.042c.125-.028.25-.056.375-.086l-.188.044.377-.09-.19.046.367-.09-.177.044a29.4 29.4 0 00.43-.108l-.253.065c.107-.028.215-.055.322-.084l-.07.019c.115-.03.229-.06.343-.092l-.273.073c.169-.044.338-.09.506-.138l-.233.065c.13-.036.259-.072.388-.11l-.155.045c.12-.034.238-.068.357-.104l-.202.06c.132-.038.263-.077.394-.117l-.192.057c.123-.036.246-.073.369-.112l-.177.055.384-.12-.207.065c.16-.049.318-.1.478-.153l-.27.088c.126-.04.253-.082.38-.124l-.11.036c.295-.097.591-.2.887-.307l.091-.034v-4.488a9.21 9.21 0 00-2.121-5.885l-.082-.098.082.098a6.897 6.897 0 00-.113-.134l.031.036a8.857 8.857 0 00-.305-.343l.047.05a7.13 7.13 0 00-.116-.122l.07.072a9.454 9.454 0 00-.364-.368l.034.034a8.13 8.13 0 00-.116-.111l.082.077a8.495 8.495 0 00-.132-.124l.05.046a9.594 9.594 0 00-2.543-1.71l.09.043a11.866 11.866 0 00-.342-.154l.128.056a7.092 7.092 0 00-.155-.067l.027.011a15.442 15.442 0 00-.16-.066l.133.055c-.07-.03-.14-.058-.21-.086l.077.03-.19-.074.113.044-.158-.06.044.016a9.6 9.6 0 00-.58-.2l-.063-.019.062.02a9.96 9.96 0 00-.207-.062l.145.042a7.468 7.468 0 00-.172-.05l.027.008a9.627 9.627 0 00-.79-.188l-.039-.008.04.008a9.123 9.123 0 00-.435-.075l.034.005a9.19 9.19 0 00-.426-.055l-.03-.004.03.004a8.5 8.5 0 00-.194-.019l.163.015a10.906 10.906 0 00-.245-.022l.082.007-.18-.014.098.007-.187-.013.09.006a9.087 9.087 0 00-.21-.012l.12.006a12.294 12.294 0 00-.193-.01l.074.004a9.743 9.743 0 00-.463-.01zm11.67 3.122a6.48 6.48 0 00-1.736.234 11.223 11.223 0 011.736 6.008v4.161c2.114 0 4.232-.379 6.358-1.14l.008-.003V23.93c0-3.395-2.763-6.156-6.204-6.24l-.162-.002zm-23.34 0c-3.515 0-6.365 2.794-6.365 6.242v3.018l.363.127c1.894.64 3.783.977 5.669 1.013l.333.003v-4.16c0-2.204.635-4.262 1.736-6.008a6.476 6.476 0 00-1.736-.235zm23.34-8.324c-1.758 0-3.182 1.398-3.182 3.122s1.425 3.121 3.182 3.121c1.758 0 3.183-1.397 3.183-3.121s-1.425-3.122-3.183-3.122zm-23.34 0c-1.758 0-3.183 1.398-3.183 3.122s1.425 3.121 3.183 3.121c1.758 0 3.183-1.397 3.183-3.121s-1.425-3.122-3.183-3.122zm11.67-7.282c-2.93 0-5.304 2.329-5.304 5.202 0 2.873 2.374 5.202 5.304 5.202s5.305-2.329 5.305-5.202c0-2.873-2.375-5.202-5.305-5.202z"/></svg><svg viewBox="0 0 33 47" id="hero4" xmlns="http://www.w3.org/2000/svg"><path d="M28.4 27.426a16.452 16.452 0 004.198-9.487A16.534 16.534 0 0030.307 7.8a16.147 16.147 0 00-7.853-6.678 15.85 15.85 0 00-10.23-.509A16.081 16.081 0 003.767 6.48 16.503 16.503 0 00.51 16.34c0 4.117 1.54 8.08 4.31 11.086L.56 41.497a1.27 1.27 0 00.316 1.252c.325.326.8.444 1.236.308l4.954-1.493 3.303 4.025c.228.301.583.475.957.47h.231a1.28 1.28 0 00.942-.872l3.781-12.545h.859l3.781 12.545c.137.44.496.773.941.872h.232c.374.005.729-.169.957-.47l3.303-4.025 4.954 1.493c.436.136.911.018 1.236-.308a1.27 1.27 0 00.316-1.252L28.4 27.427zM10.712 42.234l-2.36-2.868a1.244 1.244 0 00-1.305-.402L3.563 40.02l3.22-10.716a15.946 15.946 0 006.837 3.103l-2.907 9.827zM2.985 16.34a13.95 13.95 0 013.99-9.783 13.52 13.52 0 019.634-4.052 13.52 13.52 0 019.633 4.052 13.947 13.947 0 013.99 9.783c0 3.67-1.435 7.189-3.99 9.784a13.52 13.52 0 01-9.633 4.052A13.536 13.536 0 016.98 26.12a13.965 13.965 0 01-3.995-9.779zm23.119 22.623a1.244 1.244 0 00-1.305.403l-2.312 2.868-2.955-9.828a15.949 15.949 0 006.836-3.102l3.22 10.715-3.484-1.056z"/><path d="M22.67 12.986l-2.89-.419-1.288-2.65a2.109 2.109 0 00-1.122-1.045 2.065 2.065 0 00-1.522 0 2.1 2.1 0 00-1.121 1.046l-1.288 2.65-2.89.418c-.516.08-.983.352-1.312.763a2.152 2.152 0 00.156 2.86l2.097 2.08-.495 2.917a2.142 2.142 0 00.297 1.515c.284.448.724.771 1.232.904a2.053 2.053 0 001.51-.188l2.575-1.442 2.576 1.375c.3.163.634.25.975.251.444 0 .876-.14 1.238-.402.314-.235.558-.553.704-.92.146-.368.188-.77.122-1.16l-.496-2.918 2.098-2.079c.37-.372.592-.87.621-1.4a2.15 2.15 0 00-.466-1.46 2.088 2.088 0 00-1.311-.763v.067zm-3.138 4.36a1.29 1.29 0 00-.347 1.108l.462 2.8-2.46-1.324c-.36-.2-.796-.2-1.156 0l-2.46 1.324.462-2.8a1.286 1.286 0 00-.347-1.107l-2.03-2.046 2.757-.403c.4-.064.744-.32.925-.688l1.271-2.548 1.239 2.549c.181.367.525.623.925.687l2.757.403-1.998 2.046z"/></svg><svg viewBox="0 0 37 44" id="hero5" xmlns="http://www.w3.org/2000/svg"><path d="M30.922 1.922l-.772-.224C29.947 1.628 24.97 0 18.28 0c-3.936 0-7.69.57-11.151 1.693l-.726.234c-.048.124-4.92 13.13-5.97 24.795a.972.972 0 00.968 1.059h4.823c-.79 4.843-1.543 10.082-1.543 12.491v.736l.746.249c.293.083 7.307 2.075 14.892 2.075h.002c4.52 0 8.322-.749 11.275-2.13l.622-.334-.022-.669c-.03-.397-.462-6.294-1.49-12.419h4.66a.973.973 0 00.97-1.05c-1.052-13.137-5.22-24.384-5.412-24.808zM26.437 15.88a186.726 186.726 0 01-5.94-5.19c1.247-.829 3.204-2.892 5.252-8.04 1.335.25 2.368.514 2.99.688-.16 4.075-1.591 9.876-2.302 12.542zM18.282 1.946c2.034 0 3.897.163 5.499.384-2.352 5.726-4.384 6.802-4.786 6.964-2.555-2.41-5.027-4.952-6.386-6.907a36.228 36.228 0 015.673-.441zm-7.737.833c2.698 4.377 11.253 11.755 14.533 14.503-5.318 1.64-13.067.136-15.242-.345C9.23 13.58 8.635 5.79 8.456 3.319a31.006 31.006 0 012.09-.54zM2.473 25.838c.776-7.125 2.885-14.389 4.302-18.694.29 3.578.736 8.354 1.201 10.612-.16.865-.785 4.236-1.448 8.181l-4.055-.1zm17.846 15.55h-.002c-5.93 0-11.625-1.322-13.598-1.812.233-4.816 2.42-17.116 3.063-20.657 1.651.355 5.08.985 8.763 1.05-.904 2.215-2.513 6.683-2.513 10.43a.972.972 0 001.944 0c0-2.876 1.102-6.358 1.953-8.62.514 1.047 1.171 2.666 1.773 5.003a.972.972 0 001.883-.484c-.853-3.31-1.828-5.325-2.451-6.386 1.852-.122 3.678-.434 5.294-1.04 2.328 6.202 3.459 17.903 3.714 20.842-2.606 1.08-5.905 1.676-9.824 1.676l.001-.001zm10.037-15.55c-.583-3.08-1.322-6.075-2.244-8.312.367-1.293 1.708-5.972 2.397-10.387 1.174 3.732 3.017 10.568 3.795 18.7h-3.948v-.001z"/></svg><svg viewBox="0 0 76 24" id="next" xmlns="http://www.w3.org/2000/svg"><path d="M.94 13.06a1.5 1.5 0 010-2.12l9.545-9.547a1.5 1.5 0 112.122 2.122L4.12 12l8.486 8.485a1.5 1.5 0 11-2.122 2.122L.94 13.06zM76 13.5H2v-3h74v3z"/></svg><svg viewBox="0 0 12 11" id="phone" xmlns="http://www.w3.org/2000/svg"><path d="M1.11.659C.658.7.294 1.062.286 1.5c.098 2.97 1.038 5.361 2.746 7 1.709 1.637 4.161 2.495 7.206 2.49.5.002.844-.42.853-.846l.016-2.106c0-.49-.444-.807-.854-.81-.63.002-1.51-.227-2.221-.404a.376.376 0 00-.346.096L6.514 8.057c-1.412-.848-2.059-1.473-2.928-2.84L4.75 4.09a.377.377 0 00.1-.361c-.192-.718-.508-1.653-.457-2.31-.05-.513-.537-.764-.923-.761H1.11zm.005.737h2.371c.12.003.12.003.177.112-.022.792.238 1.591.415 2.206L2.856 4.905a.38.38 0 00-.058.458c1.051 1.703 1.83 2.46 3.582 3.481a.38.38 0 00.442-.053l1.233-1.203c.67.169 1.472.38 2.203.376.052.01.105.085.11.093l-.014 2.083c-.026.06.015.113-.139.111-2.894 0-5.128-.808-6.671-2.287-1.548-1.482-2.427-3.662-2.522-6.49 0-.075 0-.075.093-.077z"/></svg><svg viewBox="0 0 76 24" id="prev" xmlns="http://www.w3.org/2000/svg"><path d="M75.06 13.06a1.5 1.5 0 000-2.12l-9.545-9.547a1.5 1.5 0 10-2.122 2.122L71.88 12l-8.486 8.485a1.5 1.5 0 102.122 2.122l9.546-9.546zM0 13.5h74v-3H0v3z"/></svg><svg viewBox="0 0 37 30" id="quotes" xmlns="http://www.w3.org/2000/svg"><path d="M16.244 11.207c0 2.39-.525 4.563-1.576 6.519-1.05 1.992-2.281 3.712-3.693 5.16a29.587 29.587 0 01-4.78 3.966c-1.739 1.195-3.133 2.064-4.183 2.607L.165 26.254a60.667 60.667 0 004.237-2.716c1.376-.905 2.426-1.774 3.15-2.607.978-1.087 1.757-2.227 2.336-3.422.58-1.16.942-2.698 1.087-4.618H8.367c-2.281 0-4.056-.58-5.323-1.738-1.268-1.159-1.902-2.77-1.902-4.835 0-1.484.58-2.879 1.739-4.182C4.04.796 5.615.126 7.607.126c3.078 0 5.287 1.032 6.627 3.096 1.34 2.028 2.01 4.69 2.01 7.985zm20.099 0c0 2.39-.526 4.563-1.576 6.519-1.05 1.992-2.281 3.712-3.694 5.16a29.588 29.588 0 01-4.78 3.966c-1.738 1.195-3.133 2.064-4.183 2.607l-1.847-3.205a60.682 60.682 0 004.237-2.716c1.377-.905 2.427-1.774 3.151-2.607.978-1.087 1.756-2.227 2.336-3.422.58-1.16.942-2.698 1.086-4.618h-2.607c-2.282 0-4.056-.58-5.324-1.738-1.267-1.159-1.9-2.77-1.9-4.835 0-1.484.579-2.879 1.738-4.182 1.158-1.34 2.734-2.01 4.725-2.01 3.079 0 5.288 1.032 6.628 3.096 1.34 2.028 2.01 4.69 2.01 7.985z"/></svg></svg>